<svg xmlns="http://www.w3.org/2000/svg" width="80.503" height="79.763" viewBox="0 0 80.503 79.763">
  <g id="Group_588" data-name="Group 588" transform="translate(0.1)">
    <g id="Group_586" data-name="Group 586" transform="translate(-0.018 1.233)">
      <path id="Path_2943" data-name="Path 2943" d="M80.52,97.486H79.74V78.213a4.085,4.085,0,0,0-1.479-3.164l1.479-.9c-.863-.041-1.767-.041-2.671-.041h-1.52a69.329,69.329,0,0,0-24.286,4.89h-.082V66.5l-8.3-8.3H25.044L16,66.994V75.5l.164.041a68.461,68.461,0,0,0-11.342-1.4l-.288-.082A2.527,2.527,0,0,0,4,74.1c-.74-.041-1.479-.041-2.178-.041-.575,0-1.151,0-1.726.041l2.26.616A4.129,4.129,0,0,0,.429,78.172v31.149a4.121,4.121,0,0,0,4.109,4.109H75.63a4.121,4.121,0,0,0,4.109-4.109V97.773Z" transform="translate(-0.1 -35.516)" fill="#fff"/>
      <path id="Path_2944" data-name="Path 2944" d="M15.28,41.959s6.78-2.63,6.822-12.616A16.543,16.543,0,0,0,15.28,15.7,18.984,18.984,0,0,0,8.5,30C8.5,39.165,15.28,41.959,15.28,41.959Z" transform="translate(-5.048 -10.481)" fill="#fff"/>
      <path id="Path_2945" data-name="Path 2945" d="M141.912,36.861s8.712-3.37,8.753-16.232A21.318,21.318,0,0,0,141.912,3,24.461,24.461,0,0,0,133.2,21.41C133.2,33.2,141.912,36.861,141.912,36.861Z" transform="translate(-78.504 -3)" fill="#fff"/>
    </g>
    <g id="Group_587" data-name="Group 587" transform="translate(-0.1)">
      <path id="Path_2946" data-name="Path 2946" d="M39.925,51.573A68.819,68.819,0,0,1,76.951,40.847c.863,0,1.767,0,2.63.041l.082-2.055c-.9-.041-1.808-.041-2.712-.041A70.723,70.723,0,0,0,64.417,39.9V35.71c2.178-1.11,8.712-5.465,8.753-16.848A22.21,22.21,0,0,0,63.924.37L63.308,0l-.575.411a25.311,25.311,0,0,0-9.123,19.232c0,10.643,6.657,15,8.753,16.109v4.561a75.651,75.651,0,0,0-10.315,2.959V31.807l-8.876-8.917H25.337l-.411-.411-10.068,9.78v7.726c-1.192-.205-2.383-.411-3.616-.575V33.368c1.808-.986,6.78-4.438,6.78-13.232A17.427,17.427,0,0,0,10.749,5.589l-.616-.37-.575.411a20.1,20.1,0,0,0-7.15,15.122c0,8.137,4.972,11.63,6.739,12.616V39.2c-2.466-.247-4.972-.411-7.479-.411-.575,0-1.151,0-1.767.041l.041,2.055H1.626a69.006,69.006,0,0,1,35.71,9.945,65.769,65.769,0,0,0-8.219,6.411A63.927,63.927,0,0,0,.229,50.34v2.055a61.974,61.974,0,0,1,27.286,6.328,73.692,73.692,0,0,0-6.78,7.52A54,54,0,0,0,.188,62.216v2.055a52.155,52.155,0,0,1,19.273,3.657,72.619,72.619,0,0,0-6.493,10.684l1.849.9A70.371,70.371,0,0,1,39.925,51.573Zm15.78-31.93A23.549,23.549,0,0,1,63.431,2.548a20.532,20.532,0,0,1,7.685,16.314c-.041,8.917-4.356,12.986-6.7,14.506V18.985H62.362V33.368C60.061,31.765,55.705,27.779,55.705,19.643ZM9.187,30.9a12.114,12.114,0,0,1-4.726-10.15A18.052,18.052,0,0,1,10.256,7.767a15.429,15.429,0,0,1,5.712,12.328c0,6.411-2.918,9.534-4.767,10.808V18.163H9.146V30.9Zm15.739-5.548,6.411,6.328H18.392ZM27.8,43.765c-1.685-.657-3.411-1.274-5.178-1.808V39.45H27.8Zm4.89,2.137c-.945-.452-1.89-.863-2.835-1.274V37.4H20.57V41.34c-1.233-.329-2.425-.657-3.657-.9v-6.7h15.78Zm-5.26-20.958H42.35l6.575,6.616H34.131Zm7.315,21.985V33.615H50.034V44.094A73.429,73.429,0,0,0,39.309,49.6,50.826,50.826,0,0,0,34.747,46.929Z" transform="translate(0.1)" fill="#8bc63a"/>
      <path id="Path_2947" data-name="Path 2947" d="M116.693,122.4A63.832,63.832,0,0,0,63.6,150.714l1.685,1.151A61.88,61.88,0,0,1,116.693,124.5Z" transform="translate(-37.423 -72.101)" fill="#8bc63a"/>
      <path id="Path_2948" data-name="Path 2948" d="M102.5,167.2l1.438,1.438a51.849,51.849,0,0,1,36.9-15.287V151.3A53.77,53.77,0,0,0,102.5,167.2Z" transform="translate(-60.338 -89.125)" fill="#8bc63a"/>
    </g>
  </g>
</svg>
