<svg xmlns="http://www.w3.org/2000/svg" width="93.342" height="104.881" viewBox="0 0 93.342 104.881">
  <g id="Group_667" data-name="Group 667" transform="translate(0.25 0.408)">
    <path id="Path_3078" data-name="Path 3078" d="M47.532,127.125a3.309,3.309,0,0,1,2.1.721l5.11,3.848a3.309,3.309,0,0,0,2.1.721H92.382a5.23,5.23,0,1,0,0-10.461h3.487a5.23,5.23,0,0,0,0-10.461h3.487a5.23,5.23,0,1,0,0-10.461h3.487a5.234,5.234,0,0,0,5.23-5.23v-.361a5.44,5.44,0,0,0-5.531-4.87h-29.4a3.489,3.489,0,0,1-3.487-3.487V74.7H62.381a3.508,3.508,0,0,0-2.465,1.022L49.7,85.882A3.308,3.308,0,0,1,47.231,86.9H41.7v40.221Z" transform="translate(-16.231 -29.192)" fill="#fff" stroke="#8bc63a" stroke-miterlimit="10" stroke-width="2.5"/>
    <path id="Path_3079" data-name="Path 3079" d="M98.2,1.5V19.236l-6.974,5.23-6.974-5.23V1.5a17.49,17.49,0,0,0-9.018,23.026,18.11,18.11,0,0,0,4.81,6.433,6.919,6.919,0,0,1,2.465,5.291V57.713A3.489,3.489,0,0,0,85.994,61.2H100V36.25a6.919,6.919,0,0,1,2.465-5.291A17.454,17.454,0,0,0,104.692,6.37,17.794,17.794,0,0,0,98.2,1.5Z" transform="translate(-29.022)" fill="#fff" stroke="#8bc63a" stroke-miterlimit="10" stroke-width="2.5"/>
    <path id="Path_3080" data-name="Path 3080" d="M25.469,131.751V86.3H1v50.682H25.469Zm-12.2-1.743a3.487,3.487,0,1,1,3.487-3.487A3.489,3.489,0,0,1,13.265,130.008Z" transform="translate(0 -33.818)" fill="#fff" stroke="#8bc63a" stroke-miterlimit="10" stroke-width="2.5"/>
    <line id="Line_57" data-name="Line 57" x1="16.233" transform="translate(66.952 71.721)" fill="none" stroke="#8bc63a" stroke-linecap="round" stroke-linejoin="round" stroke-miterlimit="10" stroke-width="2.5"/>
    <line id="Line_58" data-name="Line 58" x1="14.309" transform="translate(66.952 82.182)" fill="none" stroke="#8bc63a" stroke-linecap="round" stroke-linejoin="round" stroke-miterlimit="10" stroke-width="2.5"/>
    <line id="Line_59" data-name="Line 59" x1="9.98" transform="translate(66.471 92.703)" fill="none" stroke="#8bc63a" stroke-linecap="round" stroke-linejoin="round" stroke-miterlimit="10" stroke-width="2.5"/>
  </g>
</svg>
