<svg id="Group_572" data-name="Group 572" xmlns="http://www.w3.org/2000/svg" width="86.164" height="82.182" viewBox="0 0 86.164 82.182">
  <path id="Path_2925" data-name="Path 2925" d="M1139.432,636.033l-.845-2.514a1.145,1.145,0,0,0-1.45-.721l-4.029,1.354-1.859-5.532,4.029-1.354a1.145,1.145,0,0,0,.721-1.45l-.845-2.514a1.145,1.145,0,0,0-1.45-.721l-6.914,2.324-.129.044-5.539,1.862c0-.008-.005-.016-.009-.024l-9.415,3.191h0l-27.608,9.279-.007-.017-9.415,3.183-17.225,5.79a3.044,3.044,0,0,0-1.915,3.855l3.069,9.132a3.043,3.043,0,0,0,3.855,1.916l12.216-4.106v3.029h-.851a3.044,3.044,0,0,0-3.044,3.044V668.4a3.043,3.043,0,0,0,3.044,3.044h.851v8.573h-.851a3.043,3.043,0,0,0-3.044,3.043v3.319a3.044,3.044,0,0,0,3.044,3.044h.851v10.2a3.043,3.043,0,0,0,3.044,3.043h3.566a3.043,3.043,0,0,0,3.044-3.043v-10.2H1088a4.564,4.564,0,0,0,7.139,0H1111.7v10.2a3.044,3.044,0,0,0,3.044,3.043h3.566a3.044,3.044,0,0,0,3.044-3.043v-10.2h.782a3.044,3.044,0,0,0,3.044-3.044V683.06a3.044,3.044,0,0,0-3.044-3.043h-.782v-8.573h.782a3.044,3.044,0,0,0,3.044-3.044v-3.319a3.044,3.044,0,0,0-3.044-3.044h-.782v-18.72l.333-.112,9.984-3.356.129-.043,6.914-2.324A1.145,1.145,0,0,0,1139.432,636.033Zm-43.59,43.984h-.7a4.563,4.563,0,0,0-7.139,0h-3.683v-9.065h3.342a4.561,4.561,0,0,0,7.82,0H1111.7v9.065Zm15.855-17.979h-16.554a4.564,4.564,0,0,0-7.139,0h-3.683v-6.274l27.376-9.2Z" transform="translate(-1054.348 -621.502)" fill="#fff"/>
  <path id="Path_2926" data-name="Path 2926" d="M1138.918,634.228l-.845-2.515a2.166,2.166,0,0,0-2.742-1.362l-3.063,1.03-1.21-3.6,3.063-1.03a2.167,2.167,0,0,0,1.362-2.741l-.845-2.515a2.169,2.169,0,0,0-2.742-1.362l-11.685,3.927-.01-.025-10.113,3.428-26.91,9.044-.007-.018-10.351,3.5-17.184,5.776a4.069,4.069,0,0,0-2.557,5.146l3.069,9.132a4.055,4.055,0,0,0,5.147,2.557l10.872-3.654v.6a4.065,4.065,0,0,0-3.894,4.055v3.319a4.065,4.065,0,0,0,3.894,4.054v6.551a4.064,4.064,0,0,0-3.894,4.055V684.9a4.065,4.065,0,0,0,3.894,4.055v9.187a4.068,4.068,0,0,0,4.063,4.063h3.567a4.068,4.068,0,0,0,4.063-4.063v-9.178h1.965a1.036,1.036,0,0,0,.221-.025,5.564,5.564,0,0,0,8.17-.083,1.008,1.008,0,0,0,.448.108H1109.2v9.178a4.068,4.068,0,0,0,4.063,4.063h3.566a4.068,4.068,0,0,0,4.064-4.063v-9.19a4.065,4.065,0,0,0,3.826-4.052V681.58a4.065,4.065,0,0,0-3.826-4.051v-6.557a4.065,4.065,0,0,0,3.826-4.051V663.6a4.065,4.065,0,0,0-3.826-4.052V642.571l16.665-5.6a2.165,2.165,0,0,0,1.362-2.741Zm-44.777,43.314a5.566,5.566,0,0,0-8.1,0,1.017,1.017,0,0,0-.221-.025h-1.965v-6.534h1.965a1.032,1.032,0,0,0,.22-.025,5.564,5.564,0,0,0,8.171-.082,1.008,1.008,0,0,0,.448.108H1109.2v6.534h-14.836A1.015,1.015,0,0,0,1094.141,677.542Zm-10.28-15.965h.957a5.547,5.547,0,0,0-.314,1.831v3.706a5.546,5.546,0,0,0,.314,1.831h-.957Zm2.682,5.536v-3.706a3.551,3.551,0,0,1,7.1,0v3.706a3.551,3.551,0,0,1-7.1,0Zm8.828-5.536H1109.2v7.367H1095.37a5.555,5.555,0,0,0,.314-1.831v-3.706A5.556,5.556,0,0,0,1095.37,661.577Zm13.828-2.039h-14.836a1.008,1.008,0,0,0-.221.025,5.566,5.566,0,0,0-8.1,0,1.009,1.009,0,0,0-.221-.025h-1.965v-4.521L1109.2,646.5Zm0-15.189-25.337,8.516V638.7c0-.095,0-.18-.011-.261l25.348-8.52Zm-48.552,16.319a2.024,2.024,0,0,1-2.563-1.274l-3.069-9.131a2.027,2.027,0,0,1,1.274-2.564l15.88-5.337V656.8Zm9.666,6.252V663.6a2.02,2.02,0,0,1,1.855-2.008v7.333A2.02,2.02,0,0,1,1070.313,666.92Zm0,17.978V681.58a2.02,2.02,0,0,1,1.855-2.007v7.333A2.02,2.02,0,0,1,1070.313,684.9Zm11.51,13.242a2.026,2.026,0,0,1-2.024,2.024h-3.567a2.027,2.027,0,0,1-2.024-2.024V641.676l7.615-2.559Zm2.039-11.217v-7.367h.957a5.544,5.544,0,0,0-.314,1.831v3.706a5.546,5.546,0,0,0,.314,1.831Zm6.233,1.72a3.555,3.555,0,0,1-3.551-3.551v-3.706a3.551,3.551,0,0,1,7.1,0v3.706A3.555,3.555,0,0,1,1090.094,688.643Zm5.276-1.72a5.555,5.555,0,0,0,.314-1.831v-3.706a5.554,5.554,0,0,0-.314-1.831H1109.2v7.367Zm23.482,11.217a2.027,2.027,0,0,1-2.025,2.024h-3.566a2.027,2.027,0,0,1-2.025-2.024V629.23l7.615-2.559Zm3.826-16.56V684.9a2.02,2.02,0,0,1-1.787,2V679.58A2.02,2.02,0,0,1,1122.678,681.58Zm0-17.979v3.319a2.02,2.02,0,0,1-1.787,2V661.6A2.02,2.02,0,0,1,1122.678,663.6Zm14.3-28.628a.119.119,0,0,1-.073.063l-16.015,5.383V626.491a4.145,4.145,0,0,0-.033-.5l11.69-3.929a.121.121,0,0,1,.1.007.12.12,0,0,1,.064.072l.845,2.514a.126.126,0,0,1-.079.159l-5,1.679,2.509,7.465,5-1.678a.12.12,0,0,1,.1.006.123.123,0,0,1,.063.072l.844,2.515A.121.121,0,0,1,1136.979,634.973Z" transform="translate(-1052.869 -620.022)" fill="#8bc63a"/>
</svg>
