<svg id="Group_510" data-name="Group 510" xmlns="http://www.w3.org/2000/svg" width="66.774" height="67.535" viewBox="0 0 66.774 67.535">
  <g id="Group_485" data-name="Group 485" transform="translate(0.83 0.83)">
    <path id="Path_2740" data-name="Path 2740" d="M250.808,673.561a15.5,15.5,0,0,0,5.947-1.18l2.023,2.147a3.988,3.988,0,0,1,2.035-.356,2.9,2.9,0,0,1,1.831.865l7.122-7.02-4.4-4.538a15.559,15.559,0,0,0-19.962-20.057l10.014,10.1-9.055,8.8-9.95-10.2a15.554,15.554,0,0,0,14.393,21.446Z" transform="translate(-235.256 -642.457)" fill="#fff"/>
    <path id="Path_2741" data-name="Path 2741" d="M362.708,760.014l.046-.05-23.1-23.1-7.071,6.868a1.337,1.337,0,0,0,.509.966s1.221,1.221,0,3.256l21.214,21.214.02-.022a6.256,6.256,0,1,0,8.379-9.135Zm-3.682,8.308a3.186,3.186,0,1,1,3.186-3.186A3.186,3.186,0,0,1,359.026,768.322Z" transform="translate(-300.285 -705.534)" fill="#fff"/>
    <path id="Path_2742" data-name="Path 2742" d="M264.785,748.549l-2.416-2.417s-2.365-.188-1.958,2.03a2.614,2.614,0,0,1-1.17,2.269,8.358,8.358,0,0,1-3.816,2.238,5.6,5.6,0,0,0-2.9,1.425l-14.4,14.3s-2.137,3.765.661,6.563,6.766.458,6.766.458l13.888-13.939a13.527,13.527,0,0,0,1.781-3.968c.2-1.526,3.154-3.663,3.154-3.663a1.221,1.221,0,0,1,1.323-.356,1.5,1.5,0,0,0,1.679-2.239Z" transform="translate(-236.654 -711.722)" fill="#fff"/>
    <path id="Path_2743" data-name="Path 2743" d="M322.308,684.217l19.459-19.688,6.257-3.892,7.1-8.318-3.052-2.976-8.012,6.715-4.044,6.181-19.916,19.84Z" transform="translate(-291.938 -647.058)" fill="#fff"/>
  </g>
  <g id="Group_486" data-name="Group 486" transform="translate(0 0)">
    <path id="Path_2744" data-name="Path 2744" d="M249.138,672.721a16.285,16.285,0,0,0,5.728-1.032l1.638,1.738.432.449.554-.281a3.252,3.252,0,0,1,1.58-.266,2.078,2.078,0,0,1,1.276.582l.579.668,8.338-8.219-4.611-4.759a16.388,16.388,0,0,0-21.206-20.627l-1.208.447,10.331,10.415-7.86,7.639-10.254-10.516-.48,1.17a16.384,16.384,0,0,0,15.161,22.591Zm-14.062-20.748,9.6,9.848,10.25-9.962-9.652-9.73a14.728,14.728,0,0,1,17.644,19.387l-.185.492,4.191,4.325-6.009,5.923a3.749,3.749,0,0,0-1.7-.58c-.143-.013-.282-.018-.417-.018a4.937,4.937,0,0,0-1.47.225l-2.031-2.156-.529.219a14.728,14.728,0,0,1-19.692-17.972Z" transform="translate(-232.756 -639.957)" fill="#8bc63a"/>
    <path id="Path_2745" data-name="Path 2745" d="M404.166,809.946a4.016,4.016,0,1,0,4.016,4.015A4.02,4.02,0,0,0,404.166,809.946Zm0,6.372a2.356,2.356,0,1,1,2.356-2.356A2.359,2.359,0,0,1,404.166,816.318Z" transform="translate(-344.594 -753.529)" fill="#8bc63a"/>
    <path id="Path_2746" data-name="Path 2746" d="M361.991,757.352,338,733.358l-7.91,7.682v.351a2.169,2.169,0,0,0,.768,1.572c.106.125.662.885-.141,2.224l-.333.556,21.672,21.672.2.187a7.085,7.085,0,1,0,9.739-10.247Zm-4.519,10.883a5.415,5.415,0,0,1-4.175-1.961l-.627-.708-.057.061-20.171-20.171a3.277,3.277,0,0,0-.43-3.686l-.068-.061a.57.57,0,0,1-.082-.08l6.118-5.942,21.954,21.954-.152.165.782.544a5.426,5.426,0,0,1-3.092,9.885Z" transform="translate(-297.784 -702.36)" fill="#8bc63a"/>
    <path id="Path_2747" data-name="Path 2747" d="M266.472,683.979l-.058-.123-.863-.9,19.794-20.027,6.284-3.908,7.684-9.006-4.145-4.042-8.681,7.276-4.064,6.211-20.186,20.108-1.155-1.155-.3-.024a3.041,3.041,0,0,0-2.342.819,2.42,2.42,0,0,0-.5,2.159c0,.029.063.706-.888,1.515-1.442,1.229-2.323,1.849-3.428,2.054a6.454,6.454,0,0,0-3.367,1.685l-14.363,14.261-.081.08-.056.1c-.847,1.492-1.771,4.992.8,7.559a5.464,5.464,0,0,0,3.981,1.61,7.863,7.863,0,0,0,3.793-1.024l.091-.054,14.025-14.076.047-.074a13.739,13.739,0,0,0,1.906-4.309c.107-.8,1.745-2.321,2.819-3.1l.082-.06.065-.076s.185-.2.381-.121a2.326,2.326,0,0,0,2.738-3.362Zm-1.493,1.556a.785.785,0,0,1-.629.265,2,2,0,0,0-2.186.5c-.67.493-3.191,2.452-3.421,4.175a12.083,12.083,0,0,1-1.609,3.555l-13.742,13.792c-.538.286-3.56,1.738-5.675-.375s-.853-4.927-.574-5.475l14.308-14.206.079-.091a5.108,5.108,0,0,1,2.388-1.107,9.076,9.076,0,0,0,4.2-2.422,3.379,3.379,0,0,0,1.448-3.05.92.92,0,0,1,.1-.773,1.159,1.159,0,0,1,.709-.272l2.163,2.162,2.485,2.583C265.205,685.271,265.038,685.467,264.98,685.535Zm-.643-5.714,19.378-19.3,4.025-6.151,7.343-6.154,1.959,1.91-6.509,7.629-6.231,3.875L265.352,680.8Z" transform="translate(-234.166 -643.978)" fill="#8bc63a"/>
  </g>
</svg>
