<svg id="Group_620" data-name="Group 620" xmlns="http://www.w3.org/2000/svg" width="68.024" height="68.025" viewBox="0 0 68.024 68.025">
  <g id="Group_490" data-name="Group 490" transform="translate(0 0)">
    <g id="Group_488" data-name="Group 488" transform="translate(0.852 0.852)">
      <path id="Path_2748" data-name="Path 2748" d="M533.932,721.411l-1.133-2.985a1.859,1.859,0,0,0-2.4-1.078l-2.472.938a18,18,0,0,0-4.959-5.032l1.018-2.263a1.859,1.859,0,0,0-.933-2.458l-2.911-1.309a1.859,1.859,0,0,0-2.458.933l-1.083,2.408a17.961,17.961,0,0,0-7.066-.045l-.881-2.322a1.859,1.859,0,0,0-2.4-1.078l-2.984,1.133a1.859,1.859,0,0,0-1.078,2.4l.938,2.472a18.008,18.008,0,0,0-5.032,4.959l-2.263-1.018a1.859,1.859,0,0,0-2.458.933l-1.309,2.911a1.859,1.859,0,0,0,.933,2.458l2.408,1.083a17.967,17.967,0,0,0-.046,7.066l-2.322.882a1.859,1.859,0,0,0-1.078,2.4l1.133,2.985a1.859,1.859,0,0,0,2.4,1.078l2.473-.939a18,18,0,0,0,4.959,5.032l-1.018,2.263a1.859,1.859,0,0,0,.933,2.458l2.911,1.309a1.859,1.859,0,0,0,2.458-.933l1.083-2.407a17.961,17.961,0,0,0,7.066.045l.881,2.322a1.859,1.859,0,0,0,2.4,1.078l2.985-1.133a1.859,1.859,0,0,0,1.078-2.4l-.939-2.472a18.005,18.005,0,0,0,5.033-4.959l2.263,1.018a1.859,1.859,0,0,0,2.458-.933l1.31-2.911a1.859,1.859,0,0,0-.933-2.458l-2.408-1.083a17.952,17.952,0,0,0,.046-7.066l2.322-.882A1.859,1.859,0,0,0,533.932,721.411Zm-20.983,15.83a9.14,9.14,0,1,1,9.14-9.14A9.14,9.14,0,0,1,512.949,737.242Z" transform="translate(-491.844 -682.887)" fill="none"/>
      <path id="Path_2749" data-name="Path 2749" d="M620.346,650.6l-2.005-.068a13.665,13.665,0,0,0-1.993-4.975l1.376-1.285a1.41,1.41,0,0,0,.069-1.993l-1.653-1.77a1.41,1.41,0,0,0-1.993-.068l-1.464,1.367a13.625,13.625,0,0,0-4.93-2.1l.064-1.883a1.41,1.41,0,0,0-1.361-1.457l-2.42-.083a1.41,1.41,0,0,0-1.458,1.361l-.069,2a13.667,13.667,0,0,0-4.975,1.993l-1.285-1.376a1.41,1.41,0,0,0-1.993-.068l-1.77,1.653a1.41,1.41,0,0,0-.068,1.993l1.367,1.464a13.611,13.611,0,0,0-2.1,4.93l-1.883-.065a1.41,1.41,0,0,0-1.457,1.361l-.083,2.42a1.41,1.41,0,0,0,1.361,1.457l2.005.069a13.662,13.662,0,0,0,1.993,4.975l-1.376,1.285a1.41,1.41,0,0,0-.069,1.993l1.653,1.77a1.411,1.411,0,0,0,1.993.068l1.464-1.367a13.613,13.613,0,0,0,4.93,2.1l-.064,1.883a1.41,1.41,0,0,0,1.361,1.458l2.42.083a1.41,1.41,0,0,0,1.458-1.361l.069-2a13.663,13.663,0,0,0,4.975-1.993l1.285,1.376a1.41,1.41,0,0,0,1.993.068l1.77-1.653a1.41,1.41,0,0,0,.068-1.993l-1.367-1.464a13.619,13.619,0,0,0,2.1-4.93l1.883.065a1.41,1.41,0,0,0,1.458-1.361l.083-2.42A1.41,1.41,0,0,0,620.346,650.6Zm-9.565,4.835a6.288,6.288,0,1,1-3.367-8.23A6.287,6.287,0,0,1,610.781,655.431Z" transform="translate(-555.388 -636.275)" fill="none"/>
    </g>
    <g id="Group_489" data-name="Group 489">
      <path id="Path_2750" data-name="Path 2750" d="M534.432,739.594a9.992,9.992,0,1,0,9.992,9.992A10,10,0,0,0,534.432,739.594Zm0,18.279a8.287,8.287,0,1,1,8.287-8.287A8.3,8.3,0,0,1,534.432,757.873Z" transform="translate(-512.476 -703.519)" fill="#8bc63a"/>
      <path id="Path_2751" data-name="Path 2751" d="M533.082,719.463l-1.133-2.985a2.714,2.714,0,0,0-3.5-1.572l-1.845.7a18.718,18.718,0,0,0-4.219-4.289l.729-1.621a2.715,2.715,0,0,0-1.36-3.585l-2.912-1.309a2.714,2.714,0,0,0-3.584,1.361l-.808,1.8a18.861,18.861,0,0,0-6.016-.044l-.632-1.665a2.714,2.714,0,0,0-3.5-1.572l-2.984,1.133a2.711,2.711,0,0,0-1.573,3.5l.7,1.844a18.714,18.714,0,0,0-4.289,4.219l-1.622-.73A2.715,2.715,0,0,0,490.956,716l-1.309,2.911a2.715,2.715,0,0,0,1.361,3.585l1.8.807a18.79,18.79,0,0,0-.044,6.017l-1.665.632a2.715,2.715,0,0,0-1.573,3.5l1.133,2.985a2.713,2.713,0,0,0,3.5,1.572l1.845-.7a18.713,18.713,0,0,0,4.219,4.289l-.73,1.622a2.715,2.715,0,0,0,1.361,3.585l2.912,1.309a2.715,2.715,0,0,0,3.585-1.361l.807-1.8a18.877,18.877,0,0,0,6.017.044l.632,1.664a2.7,2.7,0,0,0,3.5,1.573l2.984-1.133a2.711,2.711,0,0,0,1.573-3.5l-.7-1.844a18.724,18.724,0,0,0,4.289-4.218l1.621.729a2.712,2.712,0,0,0,3.585-1.361L532.957,734a2.715,2.715,0,0,0-1.36-3.585l-1.8-.807a18.783,18.783,0,0,0,.044-6.017l1.665-.632A2.714,2.714,0,0,0,533.082,719.463Zm-2.177,1.9-2.992,1.136.136.7a17.109,17.109,0,0,1-.043,6.732l-.139.67,3.031,1.363a1.008,1.008,0,0,1,.505,1.331l-1.31,2.911a1.005,1.005,0,0,1-1.331.5l-2.917-1.312-.4.594a17.058,17.058,0,0,1-4.794,4.724l-.572.376,1.181,3.112a1.006,1.006,0,0,1-.584,1.3l-2.984,1.133a1.007,1.007,0,0,1-1.3-.584l-1.136-2.992-.7.136a17.2,17.2,0,0,1-6.732-.043l-.67-.139-1.363,3.031a1.007,1.007,0,0,1-1.331.506l-2.911-1.31a1.008,1.008,0,0,1-.506-1.331L502.352,741l-.594-.4a17.053,17.053,0,0,1-4.724-4.794l-.375-.572-3.112,1.182a1.008,1.008,0,0,1-1.3-.584l-1.133-2.984a1.008,1.008,0,0,1,.584-1.3l2.992-1.136-.136-.7a17.113,17.113,0,0,1,.043-6.731l.139-.67-3.031-1.363a1.008,1.008,0,0,1-.5-1.331l1.309-2.911a1.008,1.008,0,0,1,1.331-.5l2.917,1.312.4-.594a17.063,17.063,0,0,1,4.794-4.724l.572-.376-1.181-3.111a1.007,1.007,0,0,1,.584-1.3l2.984-1.133a1.009,1.009,0,0,1,1.3.584l1.136,2.992.7-.136a17.2,17.2,0,0,1,6.732.043l.67.139,1.363-3.031a1.009,1.009,0,0,1,1.331-.505l2.911,1.309a1.008,1.008,0,0,1,.505,1.331l-1.312,2.917.594.4a17.042,17.042,0,0,1,4.724,4.794l.376.572,3.112-1.181a1.008,1.008,0,0,1,1.3.583l1.133,2.985A1.008,1.008,0,0,1,530.9,721.366Z" transform="translate(-489.346 -680.388)" fill="#8bc63a"/>
      <path id="Path_2752" data-name="Path 2752" d="M618.727,648.1l-1.338-.046a14.392,14.392,0,0,0-1.6-4l.865-.808a2.265,2.265,0,0,0,.109-3.2l-1.653-1.77a2.261,2.261,0,0,0-3.2-.109l-.976.911a14.469,14.469,0,0,0-3.96-1.7l.041-1.184a2.262,2.262,0,0,0-2.184-2.338l-2.42-.083a2.262,2.262,0,0,0-2.338,2.183l-.046,1.338a14.4,14.4,0,0,0-4,1.6l-.808-.865a2.266,2.266,0,0,0-3.2-.109l-1.77,1.653a2.261,2.261,0,0,0-.109,3.2l.911.976a14.452,14.452,0,0,0-1.7,3.96l-1.184-.04a2.265,2.265,0,0,0-2.339,2.183l-.083,2.42a2.265,2.265,0,0,0,2.184,2.338l1.338.046a14.4,14.4,0,0,0,1.6,4l-.865.808a2.266,2.266,0,0,0-.109,3.2l1.653,1.77a2.247,2.247,0,0,0,1.576.717,2.218,2.218,0,0,0,1.621-.607l.976-.911a14.439,14.439,0,0,0,3.96,1.7l-.041,1.184a2.262,2.262,0,0,0,2.184,2.339l2.42.083.079,0a2.262,2.262,0,0,0,2.259-2.185l.046-1.338a14.411,14.411,0,0,0,4-1.6l.808.865a2.265,2.265,0,0,0,3.2.11l1.77-1.653a2.266,2.266,0,0,0,.109-3.2l-.911-.976a14.444,14.444,0,0,0,1.7-3.96l1.184.04a2.262,2.262,0,0,0,2.339-2.184l.083-2.42A2.265,2.265,0,0,0,618.727,648.1Zm.4,4.7a.556.556,0,0,1-.177.389.535.535,0,0,1-.4.15l-2.6-.089-.146.7a12.784,12.784,0,0,1-1.973,4.623l-.387.564,1.833,1.963a.559.559,0,0,1-.027.789l-1.77,1.652a.559.559,0,0,1-.789-.027l-1.774-1.9-.6.392a12.733,12.733,0,0,1-4.664,1.869l-.673.125-.092,2.688a.555.555,0,0,1-.177.389.539.539,0,0,1-.4.15l-2.421-.083a.558.558,0,0,1-.538-.576l.089-2.6-.7-.147a12.779,12.779,0,0,1-4.622-1.973l-.564-.387-1.964,1.833a.548.548,0,0,1-.4.15.554.554,0,0,1-.388-.177l-1.653-1.77a.559.559,0,0,1,.027-.789l1.9-1.774-.392-.6a12.726,12.726,0,0,1-1.869-4.664l-.125-.673L588,652.9a.558.558,0,0,1-.538-.576l.083-2.42a.554.554,0,0,1,.577-.538l2.6.089.147-.7a12.784,12.784,0,0,1,1.974-4.623l.387-.564-1.834-1.963a.557.557,0,0,1,.027-.788l1.77-1.653a.56.56,0,0,1,.789.027l1.774,1.9.6-.392a12.73,12.73,0,0,1,4.664-1.869l.672-.125.092-2.688a.554.554,0,0,1,.177-.389.529.529,0,0,1,.4-.149l2.42.083a.557.557,0,0,1,.538.576l-.089,2.6.7.147a12.776,12.776,0,0,1,4.623,1.973l.564.387,1.964-1.833a.537.537,0,0,1,.4-.15.556.556,0,0,1,.389.177l1.652,1.77a.559.559,0,0,1-.027.789l-1.9,1.774.392.6a12.732,12.732,0,0,1,1.869,4.664l.125.673,2.689.092a.559.559,0,0,1,.538.577Z" transform="translate(-552.888 -633.774)" fill="#8bc63a"/>
      <path id="Path_2753" data-name="Path 2753" d="M626.268,664.94a7.139,7.139,0,1,0,3.848,3.881A7.089,7.089,0,0,0,626.268,664.94Zm2.252,8.686a5.434,5.434,0,1,1,.018-4.159A5.4,5.4,0,0,1,628.519,673.626Z" transform="translate(-573.061 -653.946)" fill="#8bc63a"/>
    </g>
  </g>
</svg>
