<svg id="Group_592" data-name="Group 592" xmlns="http://www.w3.org/2000/svg" width="134.685" height="146.935" viewBox="0 0 134.685 146.935">
  <path id="Path_2760" data-name="Path 2760" d="M1051.8,657.587a48.1,48.1,0,0,0-34.666,81.453l-.014,0,.176.166q.678.7,1.383,1.366c4.173,4.244,15.279,16.571,15.219,27.5v6.558s-.239,8.34,6.91,8.34h22.16s6.433-.238,6.433-9.055v-5.843s-1.191-13.611,11.676-24.138l-.028-.052a48.1,48.1,0,0,0-29.25-86.3Z" transform="translate(-984.079 -637.826)" fill="#fff"/>
  <g id="Group_494" data-name="Group 494">
    <path id="Path_2761" data-name="Path 2761" d="M1051.082,655.087a49.886,49.886,0,0,0-37.776,82.482l-.259.1,2.278,2.106c.458.472.928.933,1.363,1.346,3.464,3.523,14.763,15.827,14.706,26.247v6.507c-.005.2-.105,4.876,2.771,7.835a7.928,7.928,0,0,0,5.926,2.342h22.227c.081,0,8.154-.422,8.154-10.84v-5.843l-.006-.151c-.042-.52-.9-12.843,11.027-22.6l.706-.625a49.891,49.891,0,0,0-31.115-88.9ZM1062.2,780.474h-22.1a4.436,4.436,0,0,1-3.352-1.248c-1.823-1.862-1.772-5.225-1.771-5.3v-.6h31.925C1066.842,779.86,1062.8,780.427,1062.2,780.474Zm4.7-13.041v2.319h-31.93v-2.378a20.055,20.055,0,0,0-.362-3.784h32.42A22.568,22.568,0,0,0,1066.9,767.432Zm12.349-25.677-1.162.965.034.067a32.721,32.721,0,0,0-10.48,17.228h-14.545V744.546c2.45-3.392,7.435-2.861,7.486-2.854l.432-3.548c-.272-.033-5.914-.674-9.706,3.017-3.792-3.692-9.433-3.05-9.705-3.017l.431,3.548c.05-.007,5.035-.539,7.487,2.854v15.469h-15.852c-3.05-9.057-10.7-17.609-14.473-21.448q-.624-.593-1.228-1.208l-.261-.271a46.319,46.319,0,1,1,61.542,4.667Z" transform="translate(-983.366 -637.113)" fill="#8bc63a"/>
    <path id="Path_2762" data-name="Path 2762" d="M1058.691,703.506c-1.521-.724-3.1-1.473-3.882-2.656-1.464-2.2-1.432-5.987.077-8.8a5.544,5.544,0,0,1,4.745-3.241h10.844a5.368,5.368,0,0,1,5.362,5.362v7.4h3.574v-7.4a8.946,8.946,0,0,0-8.936-8.936h-3.663V680.5h-3.574v4.737h-3.607a8.946,8.946,0,0,0-7.894,5.126c-2.154,4.017-2.114,9.146.1,12.47,1.334,2.006,3.453,3.014,5.323,3.9,4.737,2.256,16.706,8.421,18.124,9.832,1.424,2.212,1.378,5.952-.117,8.74a5.542,5.542,0,0,1-4.744,3.24h-10.844a5.367,5.367,0,0,1-5.362-5.362v-7.4h-3.574v7.4a8.945,8.945,0,0,0,8.936,8.936h3.663v4.213h3.574V732.12h3.607a8.946,8.946,0,0,0,7.894-5.127c2.153-4.017,2.113-9.145-.1-12.468C1076.637,712.151,1058.87,703.592,1058.691,703.506Z" transform="translate(-997.329 -644.359)" fill="#8bc63a"/>
    <rect id="Rectangle_93" data-name="Rectangle 93" width="3.574" height="6" transform="translate(65.909)" fill="#8bc63a"/>
    <rect id="Rectangle_94" data-name="Rectangle 94" width="3.574" height="6" transform="matrix(0.707, -0.707, 0.707, 0.707, 18.461, 22.067)" fill="#8bc63a"/>
    <rect id="Rectangle_95" data-name="Rectangle 95" width="6" height="3.574" transform="translate(18.461 113.677) rotate(-45)" fill="#8bc63a"/>
    <rect id="Rectangle_96" data-name="Rectangle 96" width="6" height="3.574" transform="translate(0 66.085)" fill="#8bc63a"/>
    <rect id="Rectangle_97" data-name="Rectangle 97" width="5.999" height="3.574" transform="translate(109.455 23.782) rotate(-45)" fill="#8bc63a"/>
    <rect id="Rectangle_98" data-name="Rectangle 98" width="3.574" height="5.999" transform="translate(109.455 111.961) rotate(-45)" fill="#8bc63a"/>
    <rect id="Rectangle_99" data-name="Rectangle 99" width="6" height="3.574" transform="translate(128.685 66.085)" fill="#8bc63a"/>
  </g>
</svg>
