<svg xmlns="http://www.w3.org/2000/svg" width="100" height="100" viewBox="0 0 100 100">
  <g id="Group_663" data-name="Group 663" transform="translate(-1281 -6943)">
    <g id="Rectangle_230" data-name="Rectangle 230" transform="translate(1298 6943)" fill="#fff" stroke="#8bc63a" stroke-width="2.5">
      <path d="M3,0H64a3,3,0,0,1,3,3V48a0,0,0,0,1,0,0H0a0,0,0,0,1,0,0V3A3,3,0,0,1,3,0Z" stroke="none"/>
      <path d="M3,1.25H64A1.75,1.75,0,0,1,65.75,3V45.5a1.25,1.25,0,0,1-1.25,1.25H2.5A1.25,1.25,0,0,1,1.25,45.5V3A1.75,1.75,0,0,1,3,1.25Z" fill="none"/>
    </g>
    <g id="Rectangle_229" data-name="Rectangle 229" transform="translate(1281 6981)" fill="#fff" stroke="#8bc63a" stroke-width="2.5">
      <path d="M3,0H26a3,3,0,0,1,3,3v7a0,0,0,0,1,0,0H0a0,0,0,0,1,0,0V3A3,3,0,0,1,3,0Z" stroke="none"/>
      <path d="M3,1.25H26A1.75,1.75,0,0,1,27.75,3V7.5A1.25,1.25,0,0,1,26.5,8.75H2.5A1.25,1.25,0,0,1,1.25,7.5V3A1.75,1.75,0,0,1,3,1.25Z" fill="none"/>
    </g>
    <line id="Line_51" data-name="Line 51" x2="45" transform="translate(1309.5 6954.5)" fill="none" stroke="#8bc63a" stroke-linecap="round" stroke-width="2.5"/>
    <line id="Line_52" data-name="Line 52" x2="45" transform="translate(1309.5 6967.5)" fill="none" stroke="#8bc63a" stroke-linecap="round" stroke-width="2.5"/>
    <line id="Line_53" data-name="Line 53" x2="24" transform="translate(1330.5 6980.5)" fill="none" stroke="#8bc63a" stroke-linecap="round" stroke-width="2.5"/>
    <g id="Path_3066" data-name="Path 3066" transform="translate(1362 7009)" fill="#fff">
      <path d="M 10 32.75 L 3 32.75 C 2.035049915313721 32.75 1.25 31.96495056152344 1.25 31 L 1.25 3 C 1.25 2.035049915313721 2.035049915313721 1.25 3 1.25 L 16 1.25 C 16.92631340026855 1.25 17.68684768676758 1.973467707633972 17.74626541137695 2.885021448135376 L 11.77944946289062 30.73015785217285 C 11.31900310516357 32.75005722045898 10.32642078399658 32.75 10 32.75 Z" stroke="none"/>
      <path d="M 3 2.5 C 2.724300384521484 2.5 2.5 2.724300384521484 2.5 3 L 2.5 31 C 2.5 31.27569961547852 2.724300384521484 31.5 3 31.5 L 10 31.5 C 10.07044887542725 31.5 10.10000705718994 31.49066734313965 10.10086441040039 31.49066734313965 C 10.10088348388672 31.49066734313965 10.10088729858398 31.49067306518555 10.10087966918945 31.49068069458008 C 10.1554651260376 31.45828628540039 10.39135265350342 31.18936347961426 10.55888557434082 30.4603328704834 L 16.47604179382324 2.846935272216797 C 16.41124725341797 2.645864486694336 16.22233963012695 2.5 16 2.5 L 3 2.5 M 3 0 L 16 0 C 17.65685081481934 0 19 1.343151092529297 19 3 L 13 31 C 12.60351943969727 32.74755859375 11.65684986114502 34 10 34 L 3 34 C 1.343149185180664 34 0 32.6568489074707 0 31 L 0 3 C 0 1.343151092529297 1.343149185180664 0 3 0 Z" stroke="none" fill="#8bc63a"/>
    </g>
    <g id="Rectangle_228" data-name="Rectangle 228" transform="translate(1281 6988)" fill="#fff" stroke="#8bc63a" stroke-width="2.5">
      <path d="M0,0H86a3,3,0,0,1,3,3V55a0,0,0,0,1,0,0H3a3,3,0,0,1-3-3V0A0,0,0,0,1,0,0Z" stroke="none"/>
      <path d="M2.5,1.25H86A1.75,1.75,0,0,1,87.75,3V52.5a1.25,1.25,0,0,1-1.25,1.25H3A1.75,1.75,0,0,1,1.25,52V2.5A1.25,1.25,0,0,1,2.5,1.25Z" fill="none"/>
    </g>
    <path id="Path_3067" data-name="Path 3067" d="M0,0H13" transform="translate(1282.5 6997.5)" fill="none" stroke="#8bc63a" stroke-linecap="round" stroke-width="2.5"/>
  </g>
</svg>
