<?xml version="1.0" encoding="utf-8"?>
<!-- Generator: Adobe Illustrator 16.0.0, SVG Export Plug-In . SVG Version: 6.00 Build 0)  -->
<!DOCTYPE svg PUBLIC "-//W3C//DTD SVG 1.1//EN" "http://www.w3.org/Graphics/SVG/1.1/DTD/svg11.dtd">
<svg version="1.1" id="圖層_1" xmlns="http://www.w3.org/2000/svg" xmlns:xlink="http://www.w3.org/1999/xlink" x="0px" y="0px"
	 width="150px" height="168.225px" viewBox="0 0 150 168.225" enable-background="new 0 0 150 168.225" xml:space="preserve">
<g>
	<defs>
		<rect id="SVGID_1_" x="-31" y="-16.337" width="217.93" height="201.432"/>
	</defs>
	<clipPath id="SVGID_2_">
		<use xlink:href="#SVGID_1_"  overflow="visible"/>
	</clipPath>
	<g clip-path="url(#SVGID_2_)">
		<defs>
			<polygon id="SVGID_3_" points="7.386,167.576 71.239,168.225 148.405,0.699 86.312,0.067 			"/>
		</defs>
		<clipPath id="SVGID_4_">
			<use xlink:href="#SVGID_3_"  overflow="visible"/>
		</clipPath>
		
			<linearGradient id="SVGID_5_" gradientUnits="userSpaceOnUse" x1="-31" y1="185.0962" x2="-30" y2="185.0962" gradientTransform="matrix(-15.3738 178.8945 -201.1875 -0.1448 36849.1406 5553.6289)">
			<stop  offset="0" style="stop-color:#8BC63A"/>
			<stop  offset="1" style="stop-color:#F7F782"/>
		</linearGradient>
		<polygon clip-path="url(#SVGID_4_)" fill="url(#SVGID_5_)" points="7.395,-0.034 -7.064,168.214 148.396,168.327 162.855,0.078 		
			"/>
	</g>
	<g clip-path="url(#SVGID_2_)">
		<defs>
			<polygon id="SVGID_6_" points="7.386,167.576 71.239,168.225 148.405,0.699 86.312,0.067 			"/>
		</defs>
		<clipPath id="SVGID_7_">
			<use xlink:href="#SVGID_6_"  overflow="visible"/>
		</clipPath>
		<g opacity="0.171" clip-path="url(#SVGID_7_)" enable-background="new    ">
			<g>
				<defs>
					<rect id="SVGID_8_" x="-9.135" y="11.804" width="142.58" height="169.165"/>
				</defs>
				<clipPath id="SVGID_9_">
					<use xlink:href="#SVGID_8_"  overflow="visible"/>
				</clipPath>
				<polygon clip-path="url(#SVGID_9_)" fill="#FFFFFF" points="70.575,12.307 -8.351,179.816 55.502,180.466 132.668,12.941 				
					"/>
				<polygon clip-path="url(#SVGID_9_)" fill="none" stroke="#FFFFFF" points="70.575,12.307 -8.351,179.816 55.502,180.466 
					132.668,12.941 				"/>
			</g>
		</g>
		<polygon clip-path="url(#SVGID_7_)" fill="none" stroke="#FFFFFF" points="70.575,12.307 -8.351,179.816 55.502,180.466 
			132.668,12.941 		"/>
		<g opacity="0.882" clip-path="url(#SVGID_7_)" enable-background="new    ">
			<g>
				<defs>
					<rect id="SVGID_10_" x="15.38" y="133.05" width="23.169" height="35.459"/>
				</defs>
				<clipPath id="SVGID_11_">
					<use xlink:href="#SVGID_10_"  overflow="visible"/>
				</clipPath>
				<g clip-path="url(#SVGID_11_)">
					<defs>
						<path id="SVGID_12_" d="M26.468,165.285c-1.454,2.889-4.974,4.052-7.864,2.598c-2.821-1.42-4.007-4.822-2.681-7.688
							c1.043-1.713,2.681-2.98,4.601-3.562c2.873-1.004,4.454-3.403,6.159-6.939s1.83-6.562,0.752-8.699
							c-0.611-1.482-0.616-3.145-0.015-4.631c1.404-2.912,4.903-4.135,7.816-2.73c2.912,1.404,4.135,4.903,2.731,7.816
							c-0.934,1.539-2.45,2.636-4.205,3.04c-3.038,0.763-5.119,5.068-5.933,6.762c-0.813,1.693-2.461,5.682-1.547,8.305
							C27.197,162.177,27.235,163.691,26.468,165.285"/>
					</defs>
					<clipPath id="SVGID_13_">
						<use xlink:href="#SVGID_12_"  overflow="visible"/>
					</clipPath>
					<defs>
						<filter id="Adobe_OpacityMaskFilter" filterUnits="userSpaceOnUse" x="-2.844" y="120.584" width="59.655" height="60.396">
							<feColorMatrix  type="matrix" values="1 0 0 0 0  0 1 0 0 0  0 0 1 0 0  0 0 0 1 0"/>
						</filter>
					</defs>
					<mask maskUnits="userSpaceOnUse" x="-2.844" y="120.584" width="59.655" height="60.396" id="SVGID_14_">
						<g filter="url(#Adobe_OpacityMaskFilter)">
							
								<linearGradient id="SVGID_15_" gradientUnits="userSpaceOnUse" x1="-31" y1="185.0962" x2="-30" y2="185.0962" gradientTransform="matrix(-14.1093 -20.1316 28.4343 -19.9283 -5666.416 3225.4004)">
								<stop  offset="0" style="stop-color:#FFFFFF"/>
								<stop  offset="1" style="stop-color:#808080"/>
							</linearGradient>
							<polygon clip-path="url(#SVGID_13_)" fill="url(#SVGID_15_)" points="56.812,157.113 31.21,120.584 -2.844,144.452 
								22.757,180.98 							"/>
						</g>
					</mask>
					
						<linearGradient id="SVGID_16_" gradientUnits="userSpaceOnUse" x1="-31" y1="185.0952" x2="-30" y2="185.0952" gradientTransform="matrix(-14.1093 -20.1316 28.4343 -19.9283 -5666.4165 3225.4009)">
						<stop  offset="0" style="stop-color:#FFFFFF"/>
						<stop  offset="1" style="stop-color:#FFFFFF"/>
					</linearGradient>
					<polygon clip-path="url(#SVGID_13_)" mask="url(#SVGID_14_)" fill="url(#SVGID_16_)" points="56.812,157.113 31.21,120.584 
						-2.844,144.452 22.757,180.98 					"/>
				</g>
			</g>
		</g>
		<g opacity="0.882" clip-path="url(#SVGID_7_)" enable-background="new    ">
			<g>
				<defs>
					<rect id="SVGID_17_" x="36.38" y="156.05" width="23.169" height="35.459"/>
				</defs>
				<clipPath id="SVGID_18_">
					<use xlink:href="#SVGID_17_"  overflow="visible"/>
				</clipPath>
				<g clip-path="url(#SVGID_18_)">
					<defs>
						<path id="SVGID_19_" d="M47.468,188.285c-1.454,2.889-4.974,4.052-7.864,2.598c-2.821-1.42-4.007-4.822-2.681-7.688
							c1.043-1.713,2.681-2.98,4.601-3.562c2.873-1.004,4.454-3.403,6.159-6.939s1.83-6.562,0.752-8.699
							c-0.611-1.482-0.616-3.145-0.015-4.631c1.404-2.912,4.903-4.135,7.816-2.73c2.912,1.404,4.135,4.903,2.731,7.816
							c-0.934,1.539-2.45,2.636-4.205,3.04c-3.038,0.763-5.119,5.068-5.933,6.762c-0.813,1.693-2.461,5.682-1.547,8.305
							C48.197,185.177,48.235,186.691,47.468,188.285"/>
					</defs>
					<clipPath id="SVGID_20_">
						<use xlink:href="#SVGID_19_"  overflow="visible"/>
					</clipPath>
					<defs>
						
							<filter id="Adobe_OpacityMaskFilter_1_" filterUnits="userSpaceOnUse" x="18.156" y="143.584" width="59.655" height="60.396">
							<feColorMatrix  type="matrix" values="1 0 0 0 0  0 1 0 0 0  0 0 1 0 0  0 0 0 1 0"/>
						</filter>
					</defs>
					<mask maskUnits="userSpaceOnUse" x="18.156" y="143.584" width="59.655" height="60.396" id="SVGID_21_">
						<g filter="url(#Adobe_OpacityMaskFilter_1_)">
							
								<linearGradient id="SVGID_22_" gradientUnits="userSpaceOnUse" x1="-31" y1="185.0962" x2="-30" y2="185.0962" gradientTransform="matrix(-14.1093 -20.1316 28.4343 -19.9283 -5645.4316 3248.4004)">
								<stop  offset="0" style="stop-color:#FFFFFF"/>
								<stop  offset="1" style="stop-color:#808080"/>
							</linearGradient>
							<polygon clip-path="url(#SVGID_20_)" fill="url(#SVGID_22_)" points="77.812,180.113 52.21,143.584 18.156,167.452 
								43.757,203.98 							"/>
						</g>
					</mask>
					
						<linearGradient id="SVGID_23_" gradientUnits="userSpaceOnUse" x1="-31" y1="185.0962" x2="-30" y2="185.0962" gradientTransform="matrix(-14.1093 -20.1316 28.4343 -19.9283 -5645.4321 3248.4009)">
						<stop  offset="0" style="stop-color:#FFFFFF"/>
						<stop  offset="1" style="stop-color:#FFFFFF"/>
					</linearGradient>
					<polygon clip-path="url(#SVGID_20_)" mask="url(#SVGID_21_)" fill="url(#SVGID_23_)" points="77.812,180.113 52.21,143.584 
						18.156,167.452 43.757,203.98 					"/>
				</g>
			</g>
		</g>
		<g opacity="0.882" clip-path="url(#SVGID_7_)" enable-background="new    ">
			<g>
				<defs>
					<rect id="SVGID_24_" x="43.491" y="124.127" width="16.519" height="25.283"/>
				</defs>
				<clipPath id="SVGID_25_">
					<use xlink:href="#SVGID_24_"  overflow="visible"/>
				</clipPath>
				<g clip-path="url(#SVGID_25_)">
					<defs>
						<path id="SVGID_26_" d="M51.427,147.048c-1.002,2.077-3.497,2.948-5.574,1.946s-2.948-3.498-1.946-5.574
							c0.743-1.222,1.91-2.127,3.279-2.542c2.048-0.715,3.176-2.428,4.39-4.946c1.214-2.52,1.308-4.681,0.537-6.204
							c-0.433-1.057-0.436-2.24-0.009-3.3c1.036-2.06,3.545-2.891,5.605-1.855c2.013,1.012,2.859,3.438,1.915,5.481
							c-0.666,1.099-1.748,1.881-3,2.168c-2.166,0.542-3.646,3.612-4.229,4.821c-0.582,1.21-1.755,4.052-1.103,5.92
							C51.945,144.833,51.975,145.913,51.427,147.048"/>
					</defs>
					<clipPath id="SVGID_27_">
						<use xlink:href="#SVGID_26_"  overflow="visible"/>
					</clipPath>
					<defs>
						
							<filter id="Adobe_OpacityMaskFilter_2_" filterUnits="userSpaceOnUse" x="30.469" y="115.236" width="42.534" height="43.062">
							<feColorMatrix  type="matrix" values="1 0 0 0 0  0 1 0 0 0  0 0 1 0 0  0 0 0 1 0"/>
						</filter>
					</defs>
					<mask maskUnits="userSpaceOnUse" x="30.469" y="115.236" width="42.534" height="43.062" id="SVGID_28_">
						<g filter="url(#Adobe_OpacityMaskFilter_2_)">
							
								<linearGradient id="SVGID_29_" gradientUnits="userSpaceOnUse" x1="-31" y1="185.0942" x2="-30" y2="185.0942" gradientTransform="matrix(-10.0601 -14.354 20.273 -14.2084 -4007.5217 2328.8955)">
								<stop  offset="0" style="stop-color:#FFFFFF"/>
								<stop  offset="1" style="stop-color:#808080"/>
							</linearGradient>
							<polygon clip-path="url(#SVGID_27_)" fill="url(#SVGID_29_)" points="73.003,141.281 54.75,115.236 30.469,132.252 
								48.723,158.297 							"/>
						</g>
					</mask>
					
						<linearGradient id="SVGID_30_" gradientUnits="userSpaceOnUse" x1="-31" y1="185.0942" x2="-30" y2="185.0942" gradientTransform="matrix(-10.0601 -14.354 20.273 -14.2084 -4007.5217 2328.8955)">
						<stop  offset="0" style="stop-color:#FFFFFF"/>
						<stop  offset="1" style="stop-color:#FFFFFF"/>
					</linearGradient>
					<polygon clip-path="url(#SVGID_27_)" mask="url(#SVGID_28_)" fill="url(#SVGID_30_)" points="73.003,141.281 54.75,115.236 
						30.469,132.252 48.723,158.297 					"/>
				</g>
			</g>
		</g>
		<g opacity="0.882" clip-path="url(#SVGID_7_)" enable-background="new    ">
			<g>
				<defs>
					<rect id="SVGID_31_" x="40.222" y="99.161" width="12.792" height="19.58"/>
				</defs>
				<clipPath id="SVGID_32_">
					<use xlink:href="#SVGID_31_"  overflow="visible"/>
				</clipPath>
				<g clip-path="url(#SVGID_32_)">
					<defs>
						<path id="SVGID_33_" d="M46.346,116.953c-0.799,1.597-2.741,2.244-4.337,1.445c-1.565-0.781-2.223-2.668-1.486-4.254
							c0.577-0.945,1.481-1.645,2.54-1.966c1.586-0.555,2.459-1.879,3.399-3.83c0.939-1.95,1.012-3.623,0.419-4.805
							c-0.337-0.817-0.341-1.734-0.01-2.555c0.775-1.607,2.706-2.282,4.314-1.507s2.283,2.706,1.507,4.314
							c-0.515,0.849-1.352,1.454-2.32,1.678c-1.677,0.421-2.824,2.796-3.274,3.732c-0.452,0.936-1.36,3.136-0.855,4.583
							C46.739,114.778,46.776,115.934,46.346,116.953"/>
					</defs>
					<clipPath id="SVGID_34_">
						<use xlink:href="#SVGID_33_"  overflow="visible"/>
					</clipPath>
					<defs>
						<filter id="Adobe_OpacityMaskFilter_3_" filterUnits="userSpaceOnUse" x="30.155" y="92.276" width="32.943" height="33.352">
							<feColorMatrix  type="matrix" values="1 0 0 0 0  0 1 0 0 0  0 0 1 0 0  0 0 0 1 0"/>
						</filter>
					</defs>
					<mask maskUnits="userSpaceOnUse" x="30.155" y="92.276" width="32.943" height="33.352" id="SVGID_35_">
						<g filter="url(#Adobe_OpacityMaskFilter_3_)">
							
								<linearGradient id="SVGID_36_" gradientUnits="userSpaceOnUse" x1="-31" y1="185.0952" x2="-30" y2="185.0952" gradientTransform="matrix(-7.7903 -11.1154 15.7008 -11.004 -3097.1401 1806.7236)">
								<stop  offset="0" style="stop-color:#FFFFFF"/>
								<stop  offset="1" style="stop-color:#808080"/>
							</linearGradient>
							<polygon clip-path="url(#SVGID_34_)" fill="url(#SVGID_36_)" points="63.099,112.448 48.961,92.276 30.155,105.456 
								44.293,125.627 							"/>
						</g>
					</mask>
					
						<linearGradient id="SVGID_37_" gradientUnits="userSpaceOnUse" x1="-31" y1="185.0952" x2="-30" y2="185.0952" gradientTransform="matrix(-7.7903 -11.1154 15.7008 -11.004 -3097.1401 1806.7236)">
						<stop  offset="0" style="stop-color:#FCFCFC"/>
						<stop  offset="1" style="stop-color:#FFFFFF"/>
					</linearGradient>
					<polygon clip-path="url(#SVGID_34_)" mask="url(#SVGID_35_)" fill="url(#SVGID_37_)" points="63.099,112.448 48.961,92.276 
						30.155,105.456 44.293,125.627 					"/>
				</g>
			</g>
		</g>
		<g opacity="0.702" clip-path="url(#SVGID_7_)" enable-background="new    ">
			<g>
				<defs>
					<rect id="SVGID_38_" x="58" y="108.554" width="7" height="7"/>
				</defs>
				<clipPath id="SVGID_39_">
					<use xlink:href="#SVGID_38_"  overflow="visible"/>
				</clipPath>
				<g clip-path="url(#SVGID_39_)">
					<defs>
						<path id="SVGID_40_" d="M61.5,108.554c1.933,0,3.5,1.567,3.5,3.5c0,1.934-1.567,3.5-3.5,3.5c-1.934,0-3.5-1.566-3.5-3.5
							C58,110.122,59.566,108.554,61.5,108.554"/>
					</defs>
					<clipPath id="SVGID_41_">
						<use xlink:href="#SVGID_40_"  overflow="visible"/>
					</clipPath>
					<defs>
						<filter id="Adobe_OpacityMaskFilter_4_" filterUnits="userSpaceOnUse" x="58" y="108.554" width="7" height="7">
							<feColorMatrix  type="matrix" values="1 0 0 0 0  0 1 0 0 0  0 0 1 0 0  0 0 0 1 0"/>
						</filter>
					</defs>
					<mask maskUnits="userSpaceOnUse" x="58" y="108.554" width="7" height="7" id="SVGID_42_">
						<g filter="url(#Adobe_OpacityMaskFilter_4_)">
							
								<linearGradient id="SVGID_43_" gradientUnits="userSpaceOnUse" x1="-31.0005" y1="185.0962" x2="-30.0005" y2="185.0962" gradientTransform="matrix(-3.000000e-007 7 -7 -3.000000e-007 1357.1664 325.5562)">
								<stop  offset="0" style="stop-color:#FFFFFF"/>
								<stop  offset="1" style="stop-color:#808080"/>
							</linearGradient>
							<rect x="58" y="108.554" clip-path="url(#SVGID_41_)" fill="url(#SVGID_43_)" width="7" height="7"/>
						</g>
					</mask>
					
						<linearGradient id="SVGID_44_" gradientUnits="userSpaceOnUse" x1="-31" y1="185.0962" x2="-30" y2="185.0962" gradientTransform="matrix(-3.000000e-007 7 -7 -3.000000e-007 1357.1626 325.5562)">
						<stop  offset="0" style="stop-color:#FFFFFF"/>
						<stop  offset="1" style="stop-color:#FFFFFF"/>
					</linearGradient>
					<rect x="58" y="108.554" clip-path="url(#SVGID_41_)" mask="url(#SVGID_42_)" fill="url(#SVGID_44_)" width="7" height="7"/>
				</g>
			</g>
		</g>
	</g>
</g>
</svg>
