<svg xmlns="http://www.w3.org/2000/svg" xmlns:xlink="http://www.w3.org/1999/xlink" width="179" height="232" viewBox="0 0 179 232">
  <defs>
    <clipPath id="clip-path">
      <rect id="長方形_179" data-name="長方形 179" width="179" height="232" transform="translate(542 6760.994)" fill="#fff" stroke="#707070" stroke-width="1"/>
    </clipPath>
  </defs>
  <g id="マスクグループ_36" data-name="マスクグループ 36" transform="translate(-542 -6760.994)" opacity="0.8" clip-path="url(#clip-path)">
    <path id="sprout" d="M216.227,209.643H202.555c-16-13.667-39.509-21.735-65.182-22.411V166.524l16.157-16.157a48.955,48.955,0,0,0,8.95.823,54.276,54.276,0,0,0,38.041-16.047c13.063-13.063,18.745-31.809,14.829-48.921a3.51,3.51,0,0,0-2.638-2.638c-17.112-3.916-35.858,1.766-48.921,14.829-12.574,12.573-18.3,30.412-15.224,46.991L137.374,156.6V91.88l10.542-10.542a36.607,36.607,0,0,0,6.16.519A40.4,40.4,0,0,0,182.4,69.917c9.724-9.723,13.951-23.686,11.032-36.441a3.51,3.51,0,0,0-2.638-2.638c-12.754-2.918-26.717,1.308-36.441,11.032-9.237,9.237-13.509,22.3-11.412,34.516l-5.567,5.567V75.165A40.669,40.669,0,0,0,125.59,46.43c2.086-12.21-2.186-25.26-11.417-34.49C104.45,2.217,90.488-2.01,77.732.908a3.51,3.51,0,0,0-2.638,2.638C72.175,16.3,76.4,30.264,86.126,39.987A40.4,40.4,0,0,0,114.45,51.928a36.621,36.621,0,0,0,6.185-.524,33.7,33.7,0,0,1,9.718,23.761v51.481L119.16,115.453c3.081-16.579-2.651-34.418-15.224-46.991C90.873,55.4,72.127,49.716,55.015,53.633a3.51,3.51,0,0,0-2.638,2.638c-3.916,17.112,1.766,35.858,14.829,48.921a54.272,54.272,0,0,0,38.042,16.047,48.963,48.963,0,0,0,8.95-.823l16.158,16.158v50.659c-25.673.675-49.186,8.744-65.182,22.411H51.5a3.51,3.51,0,1,0,0,7.02H216.227a3.51,3.51,0,1,0,0-7.019ZM168.755,103.375c10.808-10.808,26.023-15.825,40.193-13.39,2.436,14.172-2.581,29.385-13.39,40.193a46.925,46.925,0,0,1-35.745,13.905l32.767-32.767a3.51,3.51,0,0,0-4.963-4.963L154.85,139.121A46.922,46.922,0,0,1,168.755,103.375Zm-9.439-56.541a32.856,32.856,0,0,1,27.69-9.571,32.859,32.859,0,0,1-9.57,27.69,33.353,33.353,0,0,1-23.022,9.886L174.6,54.652a3.51,3.51,0,0,0-4.963-4.963L149.429,69.9A33.352,33.352,0,0,1,159.317,46.834Zm-77.8-39.5A32.861,32.861,0,0,1,109.21,16.9,33.354,33.354,0,0,1,119.1,39.926L98.908,19.738A3.51,3.51,0,1,0,93.945,24.7l20.209,20.209A33.351,33.351,0,0,1,91.09,35.024,32.859,32.859,0,0,1,81.519,7.333Zm-9.35,92.9C61.361,89.421,56.344,74.207,58.78,60.036,72.95,57.6,88.165,62.617,98.973,73.425a46.923,46.923,0,0,1,13.9,35.745L80.111,76.4a3.51,3.51,0,0,0-4.963,4.963l32.767,32.767A46.923,46.923,0,0,1,72.169,100.229ZM133.864,194.2c21.372,0,41.9,5.663,56.957,15.443H76.908C91.96,199.863,112.492,194.2,133.864,194.2Z" transform="translate(498.188 6783.375)" fill="#6a6a6a"/>
  </g>
</svg>
