<svg xmlns="http://www.w3.org/2000/svg" width="31.251" height="28.142" viewBox="0 0 31.251 28.142">
  <path id="パス_2935" data-name="パス 2935" d="M302.481,340.122a4.326,4.326,0,0,0-4.223,7.552,6.02,6.02,0,0,0,4.294.2c2.164-.611,4.139.171,6.669,1.587s3.893,3.194,4.146,4.945a4.53,4.53,0,0,0,1.954,2.808,4.326,4.326,0,0,0,4.225-7.55,4.929,4.929,0,0,0-3.834-.056c-2.161.827-5.243-.9-6.457-1.575s-3.9-2.394-4.457-4.368S303.622,340.761,302.481,340.122Z" transform="translate(-420.809 -148.766) rotate(-28)" fill="#8bc63a"/>
</svg>
