<svg id="グループ_587" data-name="グループ 587" xmlns="http://www.w3.org/2000/svg" width="93.156" height="93.158" viewBox="0 0 93.156 93.158">
  <circle id="楕円形_3" data-name="楕円形 3" cx="11.427" cy="11.427" r="11.427" transform="translate(58.835 11.622)" fill="#fff"/>
  <g id="グループ_490" data-name="グループ 490" transform="translate(0 0)">
    <g id="グループ_488" data-name="グループ 488" transform="translate(1.167 1.167)">
      <path id="パス_2748" data-name="パス 2748" d="M549.482,726.737l-1.551-4.087a2.546,2.546,0,0,0-3.284-1.477l-3.386,1.285a24.656,24.656,0,0,0-6.791-6.891l1.394-3.1a2.546,2.546,0,0,0-1.278-3.366l-3.987-1.793a2.546,2.546,0,0,0-3.366,1.277l-1.483,3.3a24.6,24.6,0,0,0-9.677-.062l-1.207-3.18a2.545,2.545,0,0,0-3.284-1.477l-4.087,1.551A2.546,2.546,0,0,0,506.019,712l1.285,3.386a24.661,24.661,0,0,0-6.891,6.791l-3.1-1.394a2.546,2.546,0,0,0-3.366,1.277l-1.793,3.987a2.546,2.546,0,0,0,1.278,3.366l3.3,1.483a24.6,24.6,0,0,0-.063,9.676l-3.18,1.207a2.545,2.545,0,0,0-1.476,3.283l1.551,4.087a2.546,2.546,0,0,0,3.283,1.477l3.386-1.285a24.655,24.655,0,0,0,6.791,6.892l-1.394,3.1a2.546,2.546,0,0,0,1.278,3.366l3.987,1.793a2.545,2.545,0,0,0,3.366-1.277l1.483-3.3a24.6,24.6,0,0,0,9.677.062l1.207,3.18a2.546,2.546,0,0,0,3.284,1.477L534,763.083a2.545,2.545,0,0,0,1.476-3.283l-1.285-3.386a24.658,24.658,0,0,0,6.892-6.791l3.1,1.394a2.545,2.545,0,0,0,3.366-1.277l1.793-3.987a2.546,2.546,0,0,0-1.277-3.366l-3.3-1.483a24.584,24.584,0,0,0,.063-9.676l3.18-1.207A2.546,2.546,0,0,0,549.482,726.737Zm-28.735,21.679A12.516,12.516,0,1,1,533.263,735.9,12.516,12.516,0,0,1,520.746,748.416Z" transform="translate(-491.844 -673.979)" fill="#fff"/>
      <path id="パス_2749" data-name="パス 2749" d="M632.2,655.888l-2.746-.094a18.713,18.713,0,0,0-2.729-6.814l1.884-1.759a1.931,1.931,0,0,0,.094-2.729l-2.263-2.424a1.931,1.931,0,0,0-2.73-.093l-2,1.872a18.659,18.659,0,0,0-6.751-2.883l.088-2.578a1.931,1.931,0,0,0-1.864-2l-3.314-.113a1.931,1.931,0,0,0-2,1.864l-.094,2.746a18.717,18.717,0,0,0-6.813,2.729L599.2,641.73a1.931,1.931,0,0,0-2.729-.093L594.05,643.9a1.931,1.931,0,0,0-.093,2.729l1.872,2a18.643,18.643,0,0,0-2.882,6.751l-2.579-.089a1.931,1.931,0,0,0-2,1.864l-.113,3.314a1.931,1.931,0,0,0,1.864,2l2.746.094a18.708,18.708,0,0,0,2.729,6.813l-1.884,1.76a1.931,1.931,0,0,0-.094,2.729l2.263,2.424a1.932,1.932,0,0,0,2.73.093l2-1.872a18.643,18.643,0,0,0,6.751,2.882l-.088,2.579a1.931,1.931,0,0,0,1.864,2l3.314.113a1.932,1.932,0,0,0,2-1.864l.094-2.746a18.71,18.71,0,0,0,6.813-2.73l1.759,1.884a1.931,1.931,0,0,0,2.729.093l2.424-2.263a1.931,1.931,0,0,0,.093-2.729l-1.872-2a18.651,18.651,0,0,0,2.882-6.752l2.579.088a1.931,1.931,0,0,0,2-1.864l.113-3.314A1.931,1.931,0,0,0,632.2,655.888Zm-13.1,6.622a8.611,8.611,0,1,1-4.611-11.27A8.61,8.61,0,0,1,619.1,662.509Z" transform="translate(-543.245 -636.275)" fill="#fff"/>
    </g>
    <g id="グループ_489" data-name="グループ 489">
      <path id="パス_2750" data-name="パス 2750" d="M538.124,739.594a13.683,13.683,0,1,0,13.683,13.684A13.7,13.7,0,0,0,538.124,739.594Zm0,25.033a11.349,11.349,0,1,1,11.349-11.349A11.362,11.362,0,0,1,538.124,764.627Z" transform="translate(-508.055 -690.19)" fill="#8bc63a"/>
      <path id="パス_2751" data-name="パス 2751" d="M549.241,724.991l-1.551-4.088a3.717,3.717,0,0,0-4.789-2.153l-2.526.958a25.629,25.629,0,0,0-5.778-5.874l1-2.22a3.718,3.718,0,0,0-1.863-4.91l-3.988-1.793a3.717,3.717,0,0,0-4.909,1.864l-1.106,2.459a25.828,25.828,0,0,0-8.239-.06l-.865-2.28a3.718,3.718,0,0,0-4.789-2.153l-4.087,1.551a3.713,3.713,0,0,0-2.154,4.789l.959,2.526a25.626,25.626,0,0,0-5.874,5.777l-2.221-1a3.718,3.718,0,0,0-4.909,1.864l-1.793,3.987a3.718,3.718,0,0,0,1.864,4.909l2.459,1.105a25.73,25.73,0,0,0-.06,8.24l-2.28.865a3.718,3.718,0,0,0-2.154,4.789l1.551,4.088a3.716,3.716,0,0,0,4.789,2.153l2.526-.958a25.627,25.627,0,0,0,5.777,5.874l-1,2.221a3.718,3.718,0,0,0,1.863,4.909l3.988,1.793a3.718,3.718,0,0,0,4.909-1.864L515.1,759.9a25.848,25.848,0,0,0,8.24.06l.865,2.279a3.7,3.7,0,0,0,4.789,2.154l4.086-1.551a3.713,3.713,0,0,0,2.154-4.789l-.959-2.526a25.645,25.645,0,0,0,5.874-5.777l2.22,1a3.714,3.714,0,0,0,4.909-1.863l1.793-3.987a3.717,3.717,0,0,0-1.863-4.909l-2.459-1.106a25.719,25.719,0,0,0,.06-8.24l2.28-.865A3.717,3.717,0,0,0,549.241,724.991Zm-2.982,2.606-4.1,1.555.186.964a23.428,23.428,0,0,1-.059,9.219l-.191.917,4.151,1.867a1.381,1.381,0,0,1,.692,1.823l-1.793,3.987a1.377,1.377,0,0,1-1.822.691l-4-1.8-.55.813a23.361,23.361,0,0,1-6.566,6.469l-.783.514,1.618,4.262a1.378,1.378,0,0,1-.8,1.778l-4.087,1.551a1.379,1.379,0,0,1-1.778-.8l-1.556-4.1-.964.186a23.549,23.549,0,0,1-9.219-.059l-.917-.19-1.867,4.151a1.38,1.38,0,0,1-1.822.692l-3.987-1.793a1.381,1.381,0,0,1-.693-1.823l1.8-3.994-.813-.55a23.352,23.352,0,0,1-6.469-6.565l-.514-.784L495.1,748.2a1.381,1.381,0,0,1-1.778-.8l-1.551-4.087a1.381,1.381,0,0,1,.8-1.779l4.1-1.555-.186-.964a23.435,23.435,0,0,1,.059-9.218l.19-.917-4.151-1.867a1.38,1.38,0,0,1-.691-1.823l1.793-3.987a1.38,1.38,0,0,1,1.823-.691l4,1.8.549-.814a23.367,23.367,0,0,1,6.566-6.469l.783-.514-1.618-4.261a1.38,1.38,0,0,1,.8-1.779l4.087-1.551a1.381,1.381,0,0,1,1.778.8l1.555,4.1.964-.186a23.552,23.552,0,0,1,9.219.059l.917.19,1.867-4.151a1.382,1.382,0,0,1,1.823-.692l3.987,1.793a1.381,1.381,0,0,1,.692,1.823l-1.8,3.994.813.55a23.341,23.341,0,0,1,6.469,6.566l.515.783,4.262-1.618a1.381,1.381,0,0,1,1.778.8l1.551,4.088A1.38,1.38,0,0,1,546.259,727.6Z" transform="translate(-489.346 -671.48)" fill="#8bc63a"/>
      <path id="パス_2752" data-name="パス 2752" d="M630.909,653.388l-1.832-.063a19.711,19.711,0,0,0-2.187-5.478l1.185-1.106a3.1,3.1,0,0,0,.15-4.379l-2.263-2.424a3.1,3.1,0,0,0-4.379-.15l-1.337,1.247a19.815,19.815,0,0,0-5.423-2.322l.056-1.622a3.1,3.1,0,0,0-2.991-3.2l-3.314-.114a3.1,3.1,0,0,0-3.2,2.99l-.063,1.832a19.723,19.723,0,0,0-5.478,2.187l-1.106-1.185a3.1,3.1,0,0,0-4.379-.149l-2.424,2.264a3.1,3.1,0,0,0-.15,4.378l1.248,1.337a19.8,19.8,0,0,0-2.322,5.423l-1.622-.055a3.1,3.1,0,0,0-3.2,2.99l-.113,3.314a3.1,3.1,0,0,0,2.99,3.2l1.832.064a19.713,19.713,0,0,0,2.187,5.478l-1.185,1.106a3.1,3.1,0,0,0-.15,4.379l2.263,2.424a3.077,3.077,0,0,0,2.158.982,3.038,3.038,0,0,0,2.221-.832l1.337-1.248a19.768,19.768,0,0,0,5.423,2.322l-.056,1.621a3.1,3.1,0,0,0,2.991,3.2l3.314.113.108,0a3.1,3.1,0,0,0,3.094-2.992l.063-1.832a19.736,19.736,0,0,0,5.478-2.187l1.106,1.184a3.1,3.1,0,0,0,4.379.15l2.424-2.263a3.1,3.1,0,0,0,.149-4.379l-1.248-1.337a19.775,19.775,0,0,0,2.322-5.423l1.622.055a3.1,3.1,0,0,0,3.2-2.99l.114-3.314A3.1,3.1,0,0,0,630.909,653.388Zm.544,6.437a.762.762,0,0,1-.242.532.732.732,0,0,1-.548.2l-3.56-.121-.2.96a17.5,17.5,0,0,1-2.7,6.331l-.53.772,2.511,2.689a.766.766,0,0,1-.037,1.08l-2.424,2.263a.766.766,0,0,1-1.08-.037l-2.429-2.6-.822.537A17.436,17.436,0,0,1,613,674.994l-.921.171-.126,3.682a.76.76,0,0,1-.242.532.739.739,0,0,1-.547.2l-3.315-.113a.765.765,0,0,1-.737-.789l.122-3.56-.961-.2a17.5,17.5,0,0,1-6.33-2.7l-.772-.529-2.689,2.511a.75.75,0,0,1-.548.2.759.759,0,0,1-.532-.242l-2.263-2.424a.765.765,0,0,1,.037-1.08l2.6-2.43-.537-.822a17.428,17.428,0,0,1-2.559-6.388l-.171-.921-3.682-.127a.764.764,0,0,1-.737-.789l.113-3.314a.759.759,0,0,1,.79-.737l3.56.121.2-.961a17.506,17.506,0,0,1,2.7-6.331l.53-.772-2.511-2.689a.763.763,0,0,1,.037-1.079l2.423-2.264a.767.767,0,0,1,1.08.037l2.429,2.6.822-.537a17.434,17.434,0,0,1,6.388-2.559l.921-.172.126-3.681a.758.758,0,0,1,.242-.533.725.725,0,0,1,.547-.2l3.315.114a.762.762,0,0,1,.737.789l-.122,3.56.961.2a17.5,17.5,0,0,1,6.33,2.7l.772.53,2.689-2.511a.735.735,0,0,1,.547-.205.761.761,0,0,1,.533.242l2.263,2.424a.766.766,0,0,1-.037,1.08l-2.6,2.43.537.822a17.437,17.437,0,0,1,2.559,6.387l.171.921,3.682.127a.765.765,0,0,1,.737.789Z" transform="translate(-540.745 -633.774)" fill="#8bc63a"/>
      <path id="パス_2753" data-name="パス 2753" d="M629.927,665.147a9.777,9.777,0,1,0,5.269,5.314A9.709,9.709,0,0,0,629.927,665.147Zm3.084,11.895a7.442,7.442,0,1,1,.025-5.7A7.393,7.393,0,0,1,633.011,677.041Z" transform="translate(-557.063 -650.091)" fill="#8bc63a"/>
    </g>
  </g>
</svg>
