<svg id="コンポーネント_14_2" data-name="コンポーネント 14 – 2" xmlns="http://www.w3.org/2000/svg" width="20" height="18.397" viewBox="0 0 20 18.397">
  <g id="合体_1" data-name="合体 1" fill="none">
    <path d="M14.532,16.337A11.252,11.252,0,0,1,10,17.273c-5.523,0-10-3.867-10-8.636S4.477,0,10,0,20,3.867,20,8.637a8.035,8.035,0,0,1-2.783,5.978l.83,3.783Z" stroke="none"/>
    <path d="M 16.58039283752441 16.37854766845703 L 16.24043083190918 14.82869815826416 L 16.11579132080078 14.26046848297119 L 16.54814147949219 13.87123870849609 C 18.12923049926758 12.44783878326416 18.99998092651367 10.58889865875244 18.99998092651367 8.63687801361084 C 18.99998092651367 4.425888538360596 14.96260166168213 0.9999983310699463 9.999991416931152 0.9999983310699463 C 5.037381649017334 0.9999983310699463 1.000001430511475 4.425888538360596 1.000001430511475 8.63687801361084 C 1.000001430511475 12.84741878509521 5.037381649017334 16.2729377746582 9.999991416931152 16.2729377746582 C 11.45601177215576 16.2729377746582 12.84531116485596 15.98655796051025 14.12931156158447 15.42174816131592 L 14.59689140319824 15.21607875823975 L 15.03759098052979 15.47435855865479 L 16.58039283752441 16.37854766845703 M 18.04695129394531 18.39713859558105 L 14.53196144104004 16.33710861206055 C 13.17143154144287 16.93557739257812 11.63149166107178 17.2729377746582 9.999991416931152 17.2729377746582 C 4.477171421051025 17.2729377746582 1.416931127096177e-06 13.40613842010498 1.416931127096177e-06 8.63687801361084 C 1.416931127096177e-06 3.866798400878906 4.477171421051025 -1.655883806961356e-06 9.999991416931152 -1.655883806961356e-06 C 15.52281188964844 -1.655883806961356e-06 19.99998092651367 3.866798400878906 19.99998092651367 8.63687801361084 C 19.99998092651367 10.95659828186035 18.94072151184082 13.06281852722168 17.21721076965332 14.6144380569458 L 18.04695129394531 18.39713859558105 Z" stroke="none" fill="#7e7e7e"/>
  </g>
  <line id="線_18" data-name="線 18" x2="8.182" transform="translate(5.909 6.818)" fill="none" stroke="#7e7e7e" stroke-linecap="round" stroke-width="1"/>
  <line id="線_19" data-name="線 19" x2="8.182" transform="translate(5.909 10.455)" fill="none" stroke="#7e7e7e" stroke-linecap="round" stroke-width="1"/>
</svg>
