<svg xmlns="http://www.w3.org/2000/svg" width="101.709" height="97.009" viewBox="0 0 101.709 97.009">
  <g id="グループ_588" data-name="グループ 588" transform="translate(0)">
    <path id="パス_2925" data-name="パス 2925" d="M1154.6,638.471l-1-2.968a1.351,1.351,0,0,0-1.712-.851l-4.756,1.6-2.195-6.531,4.756-1.6a1.351,1.351,0,0,0,.851-1.712l-1-2.968a1.352,1.352,0,0,0-1.712-.851l-8.161,2.743-.152.051-6.538,2.2c0-.009-.006-.019-.01-.028l-11.113,3.766h0l-32.589,10.953-.008-.02-11.114,3.758-20.333,6.834a3.593,3.593,0,0,0-2.261,4.551l3.623,10.779a3.592,3.592,0,0,0,4.55,2.261l14.421-4.847v3.575h-1a3.593,3.593,0,0,0-3.593,3.593v3.917a3.593,3.593,0,0,0,3.593,3.593h1V690.39h-1a3.593,3.593,0,0,0-3.593,3.593V697.9a3.593,3.593,0,0,0,3.593,3.593h1v12.038a3.593,3.593,0,0,0,3.593,3.593h4.21a3.592,3.592,0,0,0,3.593-3.593V701.493h4.347a5.387,5.387,0,0,0,8.427,0h19.541v12.038a3.593,3.593,0,0,0,3.593,3.593h4.209a3.593,3.593,0,0,0,3.593-3.593V701.493h.923a3.593,3.593,0,0,0,3.593-3.593v-3.917a3.593,3.593,0,0,0-3.593-3.593h-.923V680.271h.923a3.593,3.593,0,0,0,3.593-3.593v-3.917a3.593,3.593,0,0,0-3.593-3.593h-.923v-22.1l.393-.132,11.785-3.961.152-.051,8.162-2.743A1.352,1.352,0,0,0,1154.6,638.471Zm-51.454,51.919h-.825a5.386,5.386,0,0,0-8.427,0h-4.347v-10.7h3.945a5.384,5.384,0,0,0,9.231,0h19.139v10.7Zm18.716-21.223h-19.541a5.387,5.387,0,0,0-8.427,0h-4.347v-7.406L1121.86,650.9Z" transform="translate(-1054.164 -621.318)" fill="#fff"/>
    <path id="パス_2926" data-name="パス 2926" d="M1154.444,636.791l-1-2.968a2.558,2.558,0,0,0-3.237-1.608l-3.615,1.215-1.428-4.249,3.615-1.216a2.558,2.558,0,0,0,1.608-3.236l-1-2.968a2.56,2.56,0,0,0-3.237-1.608l-13.793,4.636-.012-.029-11.937,4.046-31.764,10.676-.009-.022-12.218,4.132-20.285,6.818a4.8,4.8,0,0,0-3.018,6.075l3.623,10.78a4.787,4.787,0,0,0,6.075,3.018l12.833-4.313v.708a4.8,4.8,0,0,0-4.6,4.786v3.918a4.8,4.8,0,0,0,4.6,4.786V687.9a4.8,4.8,0,0,0-4.6,4.786V696.6a4.8,4.8,0,0,0,4.6,4.787v10.844a4.8,4.8,0,0,0,4.8,4.8h4.21a4.8,4.8,0,0,0,4.8-4.8V701.4h2.319a1.226,1.226,0,0,0,.26-.03,6.568,6.568,0,0,0,9.645-.1,1.191,1.191,0,0,0,.529.128h17.156v10.834a4.8,4.8,0,0,0,4.8,4.8h4.21a4.8,4.8,0,0,0,4.8-4.8V701.387a4.8,4.8,0,0,0,4.516-4.783v-3.917a4.8,4.8,0,0,0-4.516-4.782v-7.74a4.8,4.8,0,0,0,4.516-4.782v-3.918a4.8,4.8,0,0,0-4.516-4.782V646.639l19.672-6.612a2.555,2.555,0,0,0,1.608-3.236Zm-52.856,51.129a6.57,6.57,0,0,0-9.556,0,1.2,1.2,0,0,0-.26-.03h-2.319v-7.712h2.319a1.212,1.212,0,0,0,.26-.03,6.568,6.568,0,0,0,9.645-.1,1.192,1.192,0,0,0,.529.127h17.156v7.712h-17.513A1.2,1.2,0,0,0,1101.588,687.92Zm-12.135-18.845h1.129a6.549,6.549,0,0,0-.371,2.161v4.374a6.546,6.546,0,0,0,.371,2.161h-1.129Zm3.165,6.535v-4.374a4.192,4.192,0,0,1,8.384,0v4.374a4.192,4.192,0,0,1-8.384,0Zm10.42-6.535h16.323v8.7h-16.323a6.555,6.555,0,0,0,.371-2.161v-4.374A6.561,6.561,0,0,0,1103.038,669.075Zm16.323-2.407h-17.513a1.191,1.191,0,0,0-.26.03,6.57,6.57,0,0,0-9.556,0,1.191,1.191,0,0,0-.26-.03h-2.319v-5.337l29.908-10.052Zm0-17.929-29.908,10.053V642.066c0-.112-.005-.212-.013-.309l29.921-10.057ZM1062.049,668a2.389,2.389,0,0,1-3.026-1.5l-3.623-10.779a2.392,2.392,0,0,1,1.5-3.027l18.746-6.3V663.43Zm11.41,7.38v-3.918a2.385,2.385,0,0,1,2.19-2.37v8.656A2.384,2.384,0,0,1,1073.46,675.382Zm0,21.222v-3.917a2.385,2.385,0,0,1,2.19-2.37v8.656A2.384,2.384,0,0,1,1073.46,696.6Zm13.586,15.631a2.392,2.392,0,0,1-2.389,2.389h-4.21a2.392,2.392,0,0,1-2.39-2.389V645.583l8.989-3.021Zm2.407-13.241v-8.7h1.129a6.546,6.546,0,0,0-.371,2.161v4.375a6.547,6.547,0,0,0,.371,2.161Zm7.357,2.031a4.2,4.2,0,0,1-4.192-4.191v-4.375a4.192,4.192,0,0,1,8.384,0v4.375A4.2,4.2,0,0,1,1096.81,701.024Zm6.228-2.031a6.559,6.559,0,0,0,.371-2.161v-4.375a6.558,6.558,0,0,0-.371-2.161h16.323v8.7Zm27.719,13.241a2.392,2.392,0,0,1-2.39,2.389h-4.21a2.392,2.392,0,0,1-2.39-2.389V630.891l8.989-3.021Zm4.516-19.548V696.6a2.384,2.384,0,0,1-2.109,2.361v-8.64A2.385,2.385,0,0,1,1135.273,692.687Zm0-21.222v3.918a2.384,2.384,0,0,1-2.109,2.361V669.1A2.385,2.385,0,0,1,1135.273,671.464Zm16.881-33.793a.141.141,0,0,1-.086.074l-18.9,6.354V627.659a4.895,4.895,0,0,0-.039-.585l13.8-4.638a.149.149,0,0,1,.188.093l1,2.967a.148.148,0,0,1-.093.188l-5.9,1.982,2.962,8.812,5.9-1.981a.141.141,0,0,1,.113.007.145.145,0,0,1,.075.085l1,2.968A.143.143,0,0,1,1152.154,637.671Z" transform="translate(-1052.869 -620.021)" fill="#8bc63a"/>
  </g>
</svg>
