<svg id="グループ_586" data-name="グループ 586" xmlns="http://www.w3.org/2000/svg" width="90.826" height="99.087" viewBox="0 0 90.826 99.087">
  <path id="パス_2760" data-name="パス 2760" d="M1036.129,657.587a32.435,32.435,0,0,0-23.377,54.929l-.009,0,.119.112q.457.47.933.921c2.814,2.862,10.3,11.175,10.263,18.545v4.422s-.161,5.624,4.66,5.624h14.944s4.338-.161,4.338-6.106V732.1s-.8-9.179,7.874-16.278l-.019-.035a32.44,32.44,0,0,0-19.725-58.2Z" transform="translate(-990.464 -644.261)" fill="#fff"/>
  <g id="グループ_494" data-name="グループ 494">
    <path id="パス_2761" data-name="パス 2761" d="M1034.833,655.087a33.641,33.641,0,0,0-25.475,55.623l-.175.064,1.536,1.421c.309.318.626.629.919.907,2.336,2.376,9.956,10.673,9.917,17.7v4.388a8.03,8.03,0,0,0,1.868,5.284,5.346,5.346,0,0,0,4,1.579h14.989c.054,0,5.5-.284,5.5-7.31V730.8l0-.1c-.028-.351-.609-8.661,7.436-15.243l.476-.421a33.645,33.645,0,0,0-20.983-59.948Zm7.494,84.556h-14.906a2.991,2.991,0,0,1-2.26-.842,5.647,5.647,0,0,1-1.194-3.577v-.4H1045.5C1045.461,739.229,1042.737,739.611,1042.328,739.643Zm3.171-8.795v1.564h-21.532v-1.6a13.531,13.531,0,0,0-.244-2.552h21.862A15.215,15.215,0,0,0,1045.5,730.848Zm8.327-17.316-.784.651.023.045A22.066,22.066,0,0,0,1046,725.846h-9.809V715.414c1.652-2.288,5.014-1.929,5.048-1.925l.291-2.393c-.184-.022-3.988-.455-6.545,2.035-2.557-2.49-6.362-2.057-6.545-2.035l.291,2.393c.034,0,3.4-.364,5.049,1.925v10.432h-10.69c-2.057-6.108-7.214-11.875-9.76-14.463q-.421-.4-.828-.815l-.176-.183a31.236,31.236,0,1,1,41.5,3.147Z" transform="translate(-989.169 -642.966)" fill="#8bc63a"/>
    <path id="パス_2762" data-name="パス 2762" d="M1055.909,696.014a6.348,6.348,0,0,1-2.618-1.791,6.23,6.23,0,0,1,.052-5.936,3.739,3.739,0,0,1,3.2-2.186h7.313a3.62,3.62,0,0,1,3.616,3.616v4.989h2.41v-4.989a6.033,6.033,0,0,0-6.026-6.026h-2.47V680.5h-2.41v3.194h-2.432a6.033,6.033,0,0,0-5.323,3.457,8.54,8.54,0,0,0,.065,8.409,8.193,8.193,0,0,0,3.589,2.633c3.194,1.521,11.266,5.679,12.222,6.63a6.254,6.254,0,0,1-.079,5.894,3.737,3.737,0,0,1-3.2,2.185H1056.5a3.619,3.619,0,0,1-3.615-3.616V704.3h-2.41v4.988a6.032,6.032,0,0,0,6.026,6.026h2.47v2.841h2.41v-2.841h2.432a6.033,6.033,0,0,0,5.323-3.457,8.54,8.54,0,0,0-.066-8.408C1068.011,701.843,1056.03,696.071,1055.909,696.014Z" transform="translate(-1014.529 -656.127)" fill="#8bc63a"/>
    <rect id="長方形_93" data-name="長方形 93" width="2.41" height="4.046" transform="translate(44.446)" fill="#8bc63a"/>
    <rect id="長方形_94" data-name="長方形 94" width="2.41" height="4.046" transform="matrix(0.707, -0.707, 0.707, 0.707, 12.449, 14.881)" fill="#8bc63a"/>
    <rect id="長方形_95" data-name="長方形 95" width="4.046" height="2.41" transform="translate(12.449 76.659) rotate(-45)" fill="#8bc63a"/>
    <rect id="長方形_96" data-name="長方形 96" width="4.046" height="2.41" transform="translate(0 44.565)" fill="#8bc63a"/>
    <rect id="長方形_97" data-name="長方形 97" width="4.046" height="2.41" transform="translate(73.812 16.038) rotate(-45)" fill="#8bc63a"/>
    <rect id="長方形_98" data-name="長方形 98" width="2.41" height="4.046" transform="translate(73.812 75.502) rotate(-45)" fill="#8bc63a"/>
    <rect id="長方形_99" data-name="長方形 99" width="4.046" height="2.41" transform="translate(86.78 44.565)" fill="#8bc63a"/>
  </g>
</svg>
