<svg id="グループ_585" data-name="グループ 585" xmlns="http://www.w3.org/2000/svg" width="95.917" height="97.009" viewBox="0 0 95.917 97.009">
  <g id="グループ_485" data-name="グループ 485" transform="translate(1.192 1.192)">
    <path id="パス_2740" data-name="パス 2740" d="M257.6,687.136a22.266,22.266,0,0,0,8.543-1.695l2.906,3.084a5.729,5.729,0,0,1,2.923-.512,4.166,4.166,0,0,1,2.631,1.242l10.231-10.084-6.317-6.519a22.349,22.349,0,0,0-28.674-28.81l14.384,14.5-13.007,12.642L236.921,656.33A22.342,22.342,0,0,0,257.6,687.136Z" transform="translate(-235.256 -642.457)" fill="#fff"/>
    <path id="パス_2741" data-name="パス 2741" d="M375.853,770.115l.067-.073-33.176-33.176-10.157,9.865a1.92,1.92,0,0,0,.731,1.388s1.754,1.754,0,4.677l30.472,30.472.029-.031a8.986,8.986,0,1,0,12.035-13.122Zm-5.289,11.935a4.576,4.576,0,1,1,4.576-4.576A4.576,4.576,0,0,1,370.565,782.05Z" transform="translate(-286.187 -691.859)" fill="#fff"/>
    <path id="パス_2742" data-name="パス 2742" d="M276.759,749.606l-3.471-3.471s-3.4-.27-2.813,2.916c0,0,.292,1.578-1.68,3.259s-3.508,2.85-5.481,3.215a8.051,8.051,0,0,0-4.165,2.046L238.469,778.1s-3.069,5.408.95,9.427,9.719.657,9.719.657l19.949-20.022s2.265-3.507,2.558-5.7,4.53-5.261,4.53-5.261a1.754,1.754,0,0,1,1.9-.512,2.16,2.16,0,0,0,2.412-3.216Z" transform="translate(-236.351 -696.706)" fill="#fff"/>
    <path id="パス_2743" data-name="パス 2743" d="M323.274,699.436l27.951-28.28,8.988-5.59,10.194-11.948-4.384-4.275-11.509,9.646-5.809,8.878-28.609,28.5Z" transform="translate(-279.65 -646.061)" fill="#fff"/>
  </g>
  <g id="グループ_486" data-name="グループ 486" transform="translate(0 0)">
    <path id="パス_2744" data-name="パス 2744" d="M256.288,687.02a23.392,23.392,0,0,0,8.228-1.482l2.353,2.5.621.644.8-.4a4.672,4.672,0,0,1,2.27-.382,2.984,2.984,0,0,1,1.834.836l.832.96L285.2,677.883l-6.623-6.835a23.54,23.54,0,0,0-30.46-29.629l-1.736.643,14.84,14.961L249.928,668,235.2,652.89l-.689,1.68a23.534,23.534,0,0,0,21.777,32.45Zm-20.2-29.8,13.795,14.146,14.724-14.31-13.864-13.977a21.155,21.155,0,0,1,25.344,27.849l-.265.707,6.02,6.213-8.631,8.507a5.385,5.385,0,0,0-2.449-.833c-.206-.018-.406-.026-.6-.026a7.1,7.1,0,0,0-2.111.323l-2.918-3.1-.76.315a21.155,21.155,0,0,1-28.286-25.816Z" transform="translate(-232.756 -639.957)" fill="#8bc63a"/>
    <path id="パス_2745" data-name="パス 2745" d="M405.918,809.946a5.768,5.768,0,1,0,5.768,5.768A5.774,5.774,0,0,0,405.918,809.946Zm0,9.152a3.384,3.384,0,1,1,3.384-3.385A3.388,3.388,0,0,1,405.918,819.1Z" transform="translate(-320.349 -728.907)" fill="#8bc63a"/>
    <path id="パス_2746" data-name="パス 2746" d="M375.915,767.824l-34.466-34.466-11.362,11.034v.5a3.116,3.116,0,0,0,1.1,2.258c.152.179.951,1.272-.2,3.194l-.479.8,31.13,31.13.286.268a10.178,10.178,0,1,0,13.99-14.72Zm-6.491,15.633a7.778,7.778,0,0,1-6-2.817l-.9-1.018-.082.088L333.47,750.736a4.708,4.708,0,0,0-.617-5.295l-.1-.088a.816.816,0,0,1-.118-.115l8.788-8.535L372.96,768.24l-.218.236,1.123.781a7.794,7.794,0,0,1-4.441,14.2Z" transform="translate(-283.687 -688.831)" fill="#8bc63a"/>
    <path id="パス_2747" data-name="パス 2747" d="M280.266,700.564l-.083-.177-1.239-1.288,28.432-28.767,9.026-5.614,11.038-12.936-5.954-5.806-12.47,10.451-5.838,8.922-29,28.884-1.659-1.659-.438-.035a4.368,4.368,0,0,0-3.364,1.177,3.476,3.476,0,0,0-.722,3.1c0,.041.091,1.013-1.275,2.177-2.071,1.765-3.337,2.657-4.925,2.951a9.271,9.271,0,0,0-4.837,2.421L236.33,724.851l-.116.115-.081.142c-1.217,2.143-2.543,7.171,1.144,10.858A7.849,7.849,0,0,0,243,738.278a11.3,11.3,0,0,0,5.449-1.471l.131-.077,20.146-20.219.068-.106c.247-.382,2.42-3.8,2.737-6.189.153-1.145,2.507-3.334,4.049-4.453l.117-.085.093-.11s.266-.288.548-.174a3.342,3.342,0,0,0,3.933-4.83Zm-2.144,2.235a1.127,1.127,0,0,1-.9.381,2.878,2.878,0,0,0-3.141.725c-.963.708-4.584,3.523-4.914,6a17.356,17.356,0,0,1-2.311,5.107L247.114,734.82c-.773.411-5.114,2.5-8.151-.539s-1.225-7.077-.825-7.865L258.69,706.01l.113-.13a7.336,7.336,0,0,1,3.43-1.59c2.31-.428,4.029-1.77,6.036-3.48,2.427-2.068,2.122-4.152,2.08-4.381a1.322,1.322,0,0,1,.137-1.11,1.665,1.665,0,0,1,1.018-.391l3.106,3.106,3.57,3.71C278.446,702.421,278.206,702.7,278.122,702.8Zm-.923-8.208,27.836-27.729,5.781-8.835,10.548-8.84,2.814,2.744-9.349,10.958-8.951,5.567L278.656,696Z" transform="translate(-233.86 -643.106)" fill="#8bc63a"/>
  </g>
</svg>
