<?xml version="1.0" encoding="utf-8"?>
<!-- Generator: Adobe Illustrator 24.3.0, SVG Export Plug-In . SVG Version: 6.00 Build 0)  -->
<svg version="1.1" id="圖層_1" xmlns="http://www.w3.org/2000/svg" xmlns:xlink="http://www.w3.org/1999/xlink" x="0px" y="0px"
	 viewBox="0 0 1829 603.9" style="enable-background:new 0 0 1829 603.9;" xml:space="preserve" width="139.466" height="37.589">
<style type="text/css">
	.st0{fill:#888888;}
	.st1{fill:#EF8200;}
</style>
<g>
	<g>
		<path class="st0" d="M283.93,316.89c0,24.29,19.68,43.96,43.95,43.96c24.29,0,43.97-19.67,43.97-43.96
			c0-24.29-19.68-43.95-43.97-43.95C303.61,272.94,283.93,292.6,283.93,316.89z"/>
		<path class="st0" d="M157.06,316.89c0,24.29,19.67,43.96,43.96,43.96c24.28,0,43.94-19.67,43.94-43.96
			c0-24.29-19.66-43.95-43.94-43.95C176.73,272.94,157.06,292.6,157.06,316.89z"/>
		<path class="st0" d="M300.64,135.66c0,24.28,19.7,43.95,43.97,43.95c24.29,0,43.97-19.68,43.97-43.95
			c0-24.29-19.68-43.97-43.97-43.97C320.34,91.7,300.64,111.38,300.64,135.66z"/>
		<path class="st0" d="M371.85,420.38c0,24.29,19.68,43.97,43.94,43.97c24.31,0,43.96-19.68,43.96-43.97
			c0-24.27-19.66-43.94-43.96-43.94C391.53,376.44,371.85,396.11,371.85,420.38z"/>
		<path class="st1" d="M398.46,288.26c0,28.86,23.36,52.23,52.2,52.23s52.22-23.37,52.22-52.23c0-7.18-3.95-27.26-23.15-46.44
			c-19.19-19.2-22.59-44.62-22.59-79.61c0-35,10.75-59.85,27.67-72.84c16.95-12.98,18.08-37.14,18.08-37.14
			C502.89,23.38,479.51,0,450.67,0s-52.2,23.38-52.2,52.24c0,0,0.55,22.83,22.01,40.7c21.45,17.9,21.45,60.53,21.45,77.3
			c0,16.81-2.26,55.21-19.76,72.71C404.65,260.45,398.46,272.5,398.46,288.26z"/>
		<path class="st1" d="M274.07,237.3c23.37-16.91,28.6-49.54,11.68-72.92c-16.9-23.38-49.54-28.63-72.9-11.69
			c-5.82,4.23-19.76,19.19-24.05,45.99c-4.33,26.8-22.91,44.45-51.27,64.97c-28.35,20.53-54.78,26.39-75.23,20.29
			c-20.45-6.11-40.7,7.13-40.7,7.13c-23.36,16.92-28.6,49.56-11.69,72.92c16.91,23.4,49.55,28.62,72.92,11.7
			c0,0,18.18-13.84,20.09-41.71c1.92-27.86,36.44-52.84,50.04-62.69c13.62-9.84,46.05-30.52,70.5-26.61
			C247.9,248.58,261.28,246.54,274.07,237.3z"/>
		<path class="st1" d="M271.8,390.85c-25.18-14.07-56.99-5.08-71.06,20.11c-14.08,25.17-5.1,56.98,20.08,71.07
			c6.26,3.5,25.73,9.82,51.84,2.45c26.13-7.38,49.97,2.06,80.51,19.16c30.55,17.08,46.99,38.57,50.06,59.71
			c3.06,21.11,23.59,33.9,23.59,33.9c25.18,14.08,56.99,5.11,71.07-20.09c14.09-25.16,5.09-56.98-20.07-71.05
			c0,0-20.21-10.66-46.28-0.68c-26.09,9.99-63.3-10.81-77.95-19.02c-14.66-8.19-47.07-28.9-53.81-52.73
			C293.05,409.85,285.57,398.56,271.8,390.85z"/>
	</g>
	<g>
		<path class="st0" d="M642.26,463.36c0-19.27,0-22.82-0.26-26.88c-0.25-4.32-1.52-6.47-4.31-7.1c-1.4-0.38-3.03-0.51-4.56-0.51
			c-1.27,0-2.03-0.25-2.03-1.27c0-0.77,1.01-1.01,3.04-1.01c4.82,0,12.8,0.38,16.48,0.38c3.18,0,10.66-0.38,15.48-0.38
			c1.64,0,2.65,0.24,2.65,1.01c0,1.02-0.75,1.27-2.02,1.27c-1.26,0-2.28,0.13-3.8,0.38c-3.42,0.63-4.44,2.79-4.7,7.23
			c-0.25,4.05-0.25,7.61-0.25,26.88v22.32c0,12.31,0,22.32,0.51,27.76c0.38,3.44,1.27,5.71,5.08,6.23c1.77,0.25,4.56,0.51,6.47,0.51
			c1.39,0,2.02,0.38,2.02,1c0,0.9-1.01,1.29-2.41,1.29c-8.37,0-16.35-0.39-19.78-0.39c-2.93,0-10.91,0.39-15.98,0.39
			c-1.64,0-2.53-0.39-2.53-1.29c0-0.62,0.51-1,2.03-1c1.89,0,3.41-0.25,4.56-0.51c2.54-0.51,3.3-2.66,3.68-6.34
			c0.64-5.33,0.64-15.34,0.64-27.65V463.36z"/>
		<path class="st0" d="M702.51,507.75c0.26,8.36,1.65,10.89,3.81,11.66c1.9,0.63,4.06,0.76,5.82,0.76c1.29,0,1.91,0.5,1.91,1.14
			c0,0.89-1.01,1.15-2.53,1.15c-7.23,0-12.43-0.39-14.45-0.39c-1.02,0-6.34,0.39-12.05,0.39c-1.52,0-2.53-0.14-2.53-1.15
			c0-0.64,0.75-1.14,1.76-1.14c1.52,0,3.55-0.13,5.07-0.51c2.92-0.75,3.31-3.68,3.43-13.06l1.02-63.9c0-2.16,0.76-3.68,1.91-3.68
			c1.39,0,2.9,1.65,4.8,3.55c1.4,1.4,18.14,18.52,34.37,34.37c7.61,7.49,22.44,22.7,24.1,24.22h0.51l-1.15-47.94
			c-0.12-6.59-1.13-8.49-3.79-9.51c-1.66-0.63-4.33-0.63-5.85-0.63c-1.38,0-1.76-0.52-1.76-1.15c0-0.89,1.13-1.01,2.78-1.01
			c5.85,0,11.79,0.26,14.2,0.26c1.28,0,5.45-0.26,10.91-0.26c1.52,0,2.54,0.12,2.54,1.01c0,0.63-0.64,1.15-1.91,1.15
			c-1.13,0-2.02,0-3.42,0.38c-3.05,0.89-3.93,2.79-4.07,8.87l-1.25,67.98c0,2.41-0.9,3.42-1.78,3.42c-1.9,0-3.43-1.14-4.57-2.27
			c-6.97-6.47-20.92-19.79-32.59-31.08c-12.17-11.66-23.96-24.71-26.13-26.62h-0.37L702.51,507.75z"/>
		<path class="st0" d="M808.06,495.19c-0.63,0-0.76,0.12-1.01,0.76l-5.95,14.58c-1.14,2.67-1.65,5.33-1.65,6.6
			c0,1.91,1.01,3.05,4.43,3.05h1.65c1.39,0,1.66,0.5,1.66,1.14c0,0.89-0.64,1.15-1.78,1.15c-3.68,0-8.88-0.39-12.43-0.39
			c-1.14,0-7.1,0.39-12.94,0.39c-1.39,0-2.04-0.26-2.04-1.15c0-0.64,0.39-1.14,1.28-1.14c1.01,0,2.27-0.13,3.29-0.13
			c5.08-0.75,6.98-4.06,9.26-9.52l29.17-67.32c1.26-3.05,2.15-4.31,3.3-4.31c1.64,0,2.15,1.01,3.29,3.42
			c2.67,5.96,21.3,49.58,28.41,65.93c4.3,9.77,7.49,11.16,9.51,11.53c1.65,0.26,2.91,0.39,4.18,0.39c1.02,0,1.51,0.38,1.51,1.14
			c0,0.89-0.62,1.15-4.82,1.15c-3.93,0-12.04,0-21.44-0.26c-2.02-0.13-3.28-0.13-3.28-0.89c0-0.64,0.24-1.01,1.39-1.14
			c0.75-0.13,1.52-1.14,1.01-2.41l-8.62-21.82c-0.25-0.64-0.64-0.76-1.14-0.76H808.06z M831.9,489.22c0.5,0,0.64-0.24,0.5-0.63
			l-10.52-27c-0.13-0.39-0.26-1.02-0.5-1.02c-0.39,0-0.51,0.63-0.64,1.02l-10.78,26.88c-0.25,0.51,0,0.75,0.39,0.75H831.9z"/>
		<path class="st0" d="M926.04,463.36c0-19.27,0-22.82-0.26-26.88c-0.25-4.32-1.27-6.33-5.45-7.23c-1.02-0.25-3.18-0.38-4.95-0.38
			c-1.4,0-2.15-0.25-2.15-1.14c0-0.9,0.88-1.14,2.78-1.14c3.42,0,7.1,0.12,10.28,0.12c3.3,0.13,6.22,0.26,7.99,0.26
			c4.06,0,29.29,0,31.7-0.13c2.41-0.24,4.43-0.5,5.45-0.75c0.64-0.14,1.38-0.52,2.03-0.52c0.64,0,0.76,0.52,0.76,1.14
			c0,0.9-0.62,2.42-1.01,8.24c-0.13,1.28-0.39,6.86-0.64,8.38c-0.13,0.63-0.38,1.39-1.27,1.39c-0.89,0-1.14-0.63-1.14-1.78
			c0-0.89-0.12-3.04-0.76-4.56c-0.88-2.29-2.16-3.8-8.49-4.57c-2.16-0.25-15.47-0.51-18.01-0.51c-0.63,0-0.89,0.39-0.89,1.27v32.09
			c0,0.88,0.13,1.39,0.89,1.39c2.8,0,17.37,0,20.29-0.25c3.04-0.26,4.95-0.63,6.07-1.91c0.9-1,1.41-1.65,2.04-1.65
			c0.51,0,0.9,0.26,0.9,1.02c0,0.77-0.52,2.79-1.02,9.25c-0.12,2.54-0.51,7.61-0.51,8.5c0,1.01,0,2.41-1.14,2.41
			c-0.89,0-1.14-0.51-1.14-1.14c-0.13-1.27-0.13-2.91-0.51-4.56c-0.63-2.54-2.4-4.44-7.1-4.95c-2.41-0.26-14.96-0.38-18-0.38
			c-0.64,0-0.76,0.5-0.76,1.26v10.01c0,4.32-0.13,15.98,0,19.66c0.25,8.75,2.29,10.65,15.22,10.65c3.3,0,8.62,0,11.91-1.52
			c3.3-1.52,4.82-4.18,5.71-9.38c0.26-1.4,0.51-1.9,1.39-1.9c1.02,0,1.02,1.02,1.02,2.28c0,2.91-1.02,11.54-1.64,14.08
			c-0.89,3.3-2.03,3.3-6.86,3.3c-9.5,0-16.47-0.26-21.93-0.38c-5.46-0.26-9.39-0.39-13.2-0.39c-1.39,0-4.17,0-7.22,0.13
			c-2.92,0-6.21,0.26-8.75,0.26c-1.65,0-2.54-0.39-2.54-1.29c0-0.62,0.51-1,2.03-1c1.9,0,3.43-0.25,4.57-0.51
			c2.54-0.51,3.18-3.29,3.68-6.98c0.64-5.32,0.64-15.34,0.64-27.01V463.36z"/>
		<path class="st0" d="M1009.13,507.75c0.25,8.36,1.65,10.89,3.8,11.66c1.9,0.63,4.06,0.76,5.83,0.76c1.28,0,1.91,0.5,1.91,1.14
			c0,0.89-1.02,1.15-2.53,1.15c-7.22,0-12.43-0.39-14.46-0.39c-1.01,0-6.34,0.39-12.05,0.39c-1.51,0-2.53-0.14-2.53-1.15
			c0-0.64,0.76-1.14,1.77-1.14c1.52,0,3.55-0.13,5.07-0.51c2.91-0.75,3.31-3.68,3.42-13.06l1.02-63.9c0-2.16,0.76-3.68,1.9-3.68
			c1.39,0,2.91,1.65,4.81,3.55c1.4,1.4,18.14,18.52,34.37,34.37c7.61,7.49,22.44,22.7,24.1,24.22h0.51l-1.15-47.94
			c-0.12-6.59-1.14-8.49-3.79-9.51c-1.65-0.63-4.32-0.63-5.84-0.63c-1.39,0-1.76-0.52-1.76-1.15c0-0.89,1.14-1.01,2.77-1.01
			c5.85,0,11.8,0.26,14.2,0.26c1.28,0,5.46-0.26,10.92-0.26c1.51,0,2.53,0.12,2.53,1.01c0,0.63-0.64,1.15-1.9,1.15
			c-1.14,0-2.04,0-3.43,0.38c-3.04,0.89-3.93,2.79-4.06,8.87l-1.26,67.98c0,2.41-0.89,3.42-1.78,3.42c-1.89,0-3.42-1.14-4.57-2.27
			c-6.97-6.47-20.92-19.79-32.59-31.08c-12.17-11.66-23.96-24.71-26.12-26.62h-0.37L1009.13,507.75z"/>
		<path class="st0" d="M1109.87,472.11c0-16.36,0-19.41-0.13-22.82c-0.27-3.69-1.27-4.82-4.83-5.84c-0.88-0.25-2.77-0.38-4.43-0.38
			c-1.14,0-1.89-0.38-1.89-1.15c0-0.75,0.88-1.01,2.53-1.01c5.83,0,12.93,0.26,16.1,0.26c3.55,0,28.27,0.13,30.43,0
			c2.04-0.14,3.8-0.51,4.7-0.64c0.63-0.13,1.26-0.52,1.77-0.52c0.64,0,0.76,0.52,0.76,1.02c0,0.77-0.64,2.04-0.89,6.98
			c-0.12,1.14-0.38,5.84-0.63,7.1c-0.13,0.51-0.38,1.77-1.28,1.77c-0.75,0-0.88-0.51-0.88-1.38c0-0.77-0.12-2.67-0.76-3.94
			c-0.89-1.91-1.77-3.43-7.35-3.94c-1.89-0.25-15.22-0.5-17.5-0.5c-0.51,0-0.76,0.38-0.76,1.01v26.63c0,0.63,0.12,1.14,0.76,1.14
			c2.54,0,16.99,0,19.53-0.25c2.66-0.26,4.19-0.64,5.32-1.66c0.89-0.76,1.27-1.38,1.78-1.38c0.51,0,0.88,0.51,0.88,1.14
			c0,0.64-0.24,2.41-0.88,7.86c-0.25,2.16-0.51,6.46-0.51,7.23c0,0.9-0.13,2.41-1.14,2.41c-0.76,0-1.01-0.38-1.01-0.9
			c-0.12-1.14-0.12-2.53-0.38-3.92c-0.64-2.16-2.03-3.82-6.23-4.19c-2.02-0.25-14.7-0.52-17.49-0.52c-0.51,0-0.63,0.52-0.63,1.15
			v8.62c0,3.68-0.13,12.81,0,15.99c0.25,7.36,3.68,9,15.08,9c2.92,0,7.6-0.13,10.53-1.4c2.8-1.26,4.06-3.55,4.82-7.99
			c0.26-1.14,0.51-1.64,1.28-1.64c0.89,0,1.01,1.39,1.01,2.53c0,2.42-0.89,9.77-1.51,11.92c-0.77,2.79-1.78,2.79-5.97,2.79
			c-8.35,0-15.09-0.13-20.54-0.38c-5.45-0.13-9.63-0.25-12.93-0.25c-1.27,0-3.68,0.13-6.34,0.13c-2.67,0.13-5.46,0.26-7.74,0.26
			c-1.39,0-2.16-0.39-2.16-1.15c0-0.51,0.38-1.14,1.78-1.14c1.65,0,2.91-0.13,3.92-0.39c2.28-0.49,2.92-2.53,3.3-5.7
			c0.51-4.57,0.51-13.05,0.51-22.95V472.11z"/>
		<path class="st0" d="M1181.42,472.11c0-16.36,0-19.41-0.12-22.82c-0.27-3.69-1.28-4.82-4.83-5.84c-0.88-0.25-2.78-0.38-4.44-0.38
			c-1.14,0-1.89-0.38-1.89-1.15c0-0.75,0.88-1.01,2.53-1.01c5.83,0,12.93,0.26,15.22,0.26c3.79,0,13.94-0.26,17.36-0.26
			c7.1,0,15.22,0.63,21.18,4.57c3.17,2.15,7.86,7.61,7.86,14.83c0,7.99-4.56,15.09-15.46,23.84c9.88,12.17,17.75,21.95,24.46,28.66
			c6.22,6.22,10.15,6.72,11.92,7.1c1.14,0.25,1.77,0.25,2.67,0.25c0.88,0,1.39,0.63,1.39,1.14c0,0.89-0.77,1.15-2.17,1.15h-10.65
			c-6.21,0-9.25-0.64-12.17-2.16c-4.81-2.41-9-7.48-15.22-15.86c-4.43-5.83-9.13-13.05-10.52-14.7c-0.64-0.64-1.27-0.76-2.03-0.76
			l-10.01-0.26c-0.52,0-0.9,0.26-0.9,0.89v1.52c0,10.02,0.12,18.38,0.63,22.95c0.38,3.17,0.89,5.21,4.32,5.7
			c1.65,0.26,4.06,0.39,5.45,0.39c0.89,0,1.39,0.63,1.39,1.14c0,0.76-0.88,1.15-2.27,1.15c-6.46,0-15.72-0.39-17.37-0.39
			c-2.16,0-9.26,0.39-13.69,0.39c-1.39,0-2.16-0.39-2.16-1.15c0-0.51,0.38-1.14,1.79-1.14c1.64,0,2.91-0.13,3.93-0.39
			c2.28-0.49,2.91-2.53,3.3-5.7c0.51-4.57,0.51-13.05,0.51-22.95V472.11z M1195.62,480.48c0,1.14,0.26,1.52,1.02,1.9
			c2.42,0.75,5.7,1.02,8.49,1.02c4.44,0,5.96-0.39,7.86-1.79c3.43-2.41,7.23-7.1,7.23-15.97c0-15.22-10.4-19.15-16.99-19.15
			c-2.79,0-5.46,0.13-6.6,0.38c-0.76,0.26-1.02,0.63-1.02,1.52V480.48z"/>
		<path class="st0" d="M1336.91,515.23c0,2.9,0,3.04-1.39,3.8c-7.48,3.67-18.52,4.82-27.26,4.82c-27.39,0-51.62-12.43-51.62-42.23
			c0-17.24,9.25-29.3,19.53-35.24c10.65-6.22,20.66-6.98,30.06-6.98c7.73,0,17.5,1.27,19.78,1.78c2.27,0.38,6.21,1.02,8.86,1.14
			c1.28,0.12,1.53,0.52,1.53,1.27c0,1.26-0.76,4.19-0.76,17.73c0,1.67-0.63,2.42-1.52,2.42c-0.77,0-1.02-0.51-1.15-1.4
			c-0.24-2.4-0.88-5.83-3.79-8.87c-3.31-3.43-11.68-8.24-24.23-8.24c-6.09,0-13.81,0.13-21.55,6.34
			c-6.22,5.08-10.27,13.06-10.27,26.25c0,23.21,14.96,40.07,38.81,40.07c2.91,0,5.18,0,7.86-1.14c1.66-0.76,2.16-1.89,2.16-3.8v-9.9
			c0-5.32,0-9.38-0.13-12.68c-0.14-3.67-1.27-4.81-4.83-5.83c-0.88-0.25-2.78-0.38-4.31-0.38c-1.02,0-1.77-0.51-1.77-1.14
			c0-0.89,0.89-1.01,2.42-1.01c5.83,0,13.81,0.25,17.11,0.25c3.55,0,9.38-0.25,13.06-0.25c1.51,0,2.29,0.13,2.29,1.01
			c0,0.63-0.64,1.14-1.4,1.14c-0.89,0-1.77,0.13-3.04,0.38c-3.05,0.51-4.18,2.03-4.32,5.83c-0.13,3.31-0.13,7.62-0.13,12.95V515.23z
			"/>
		<path class="st0" d="M1381.22,494.42c0-5.83-1.02-8.11-2.54-11.29c-0.77-1.64-15.99-25.37-19.92-31.06
			c-2.79-3.94-5.07-6.48-7.22-7.61c-1.39-0.76-3.3-1.39-4.69-1.39c-0.9,0-1.64-0.38-1.64-1.15c0-0.75,0.75-1.01,2.15-1.01
			c1.91,0,10.26,0.26,13.94,0.26c2.41,0,7.61-0.26,12.68-0.26c1.02,0,1.66,0.26,1.66,1.01c0,0.9-0.77,0.9-2.54,1.4
			c-0.89,0.25-1.51,0.76-1.51,1.65c0,0.89,0.49,2.16,1.38,3.67c2.03,3.3,16.61,28.54,18.51,31.58c1.39-2.54,14.97-25.62,16.61-28.91
			c1.14-2.41,1.65-4.32,1.65-5.72c0-1.01-0.51-2.02-2.42-2.4c-1.01-0.26-2.03-0.38-2.03-1.28c0-0.75,0.64-1.01,1.91-1.01
			c3.66,0,7.61,0.26,10.9,0.26c2.41,0,9.77-0.26,11.92-0.26c1.27,0,2.03,0.26,2.03,0.9c0,0.75-0.89,1.27-2.15,1.27
			c-1.14,0-3.17,0.51-4.83,1.27c-2.41,1.14-3.42,2.15-5.83,5.07c-3.68,4.3-19.64,29.94-21.68,34.49c-1.64,3.93-1.39,7.23-1.39,10.78
			v8.62c0,1.78,0,6.21,0.26,10.77c0.24,3.17,1.26,5.21,4.57,5.7c1.64,0.26,4.05,0.39,5.57,0.39c1.26,0,1.9,0.63,1.9,1.14
			c0,0.76-0.89,1.15-2.4,1.15c-6.98,0-14.47-0.39-17.51-0.39c-2.78,0-10.26,0.39-14.44,0.39c-1.53,0-2.42-0.26-2.42-1.15
			c0-0.51,0.51-1.14,1.77-1.14c1.52,0,2.91-0.13,3.92-0.39c2.3-0.49,3.19-2.53,3.43-5.7c0.38-4.57,0.38-9,0.38-10.77V494.42z"/>
		<path class="st0" d="M1488.54,510.41c-12.44-10.91-15.73-25.11-15.73-37.42c0-8.61,2.66-23.58,14.83-34.73
			c9.13-8.38,21.19-13.45,40.08-13.45c7.87,0,12.56,0.51,18.38,1.29c4.83,0.62,8.88,1.76,12.68,2.15c1.4,0.12,1.91,0.76,1.91,1.51
			c0,1.02-0.38,2.54-0.63,6.98c-0.26,4.17-0.13,11.16-0.39,13.69c-0.12,1.89-0.39,2.91-1.52,2.91c-1.01,0-1.26-1.02-1.26-2.79
			c-0.14-3.93-1.79-8.36-4.94-11.66c-4.19-4.45-14.08-7.88-25.76-7.88c-11.02,0-18.25,2.8-23.83,7.88
			c-9.26,8.49-11.67,20.54-11.67,32.84c0,30.17,22.95,45.14,39.95,45.14c11.28,0,18.12-1.28,23.19-7.1
			c2.17-2.41,3.81-6.09,4.32-8.38c0.38-2.03,0.63-2.53,1.64-2.53c0.9,0,1.15,0.89,1.15,1.9c0,1.53-1.52,12.56-2.79,16.86
			c-0.64,2.15-1.14,2.8-3.3,3.68c-5.07,2.03-14.71,2.92-22.82,2.92C1514.65,524.23,1500.08,520.43,1488.54,510.41z"/>
		<path class="st0" d="M1574.43,481.62c0-18.39,12.94-42.22,46.78-42.22c28.17,0,45.65,15.61,45.65,40.33
			c0,24.71-18,44.13-46.78,44.13C1587.62,523.85,1574.43,500.76,1574.43,481.62z M1650.25,483.64c0-23.84-14.33-38.55-32.33-38.55
			c-12.43,0-27.01,6.6-27.01,33.23c0,22.19,12.68,39.69,33.72,39.69C1632.5,518.01,1650.25,514.34,1650.25,483.64z"/>
		<path class="st0" d="M1688.72,472.11c0-16.36,0-19.41-0.12-22.82c-0.25-3.69-1.26-4.82-4.82-5.84c-0.89-0.25-2.79-0.38-4.44-0.38
			c-1.13,0-1.9-0.38-1.9-1.15c0-0.75,0.89-1.01,2.54-1.01c5.84,0,12.93,0.26,15.22,0.26c3.81,0,13.95-0.26,17.37-0.26
			c7.1,0,15.21,0.63,21.17,4.57c3.18,2.15,7.88,7.61,7.88,14.83c0,7.99-4.57,15.09-15.48,23.84c9.89,12.17,17.74,21.95,24.48,28.66
			c6.21,6.22,10.14,6.72,11.91,7.1c1.14,0.25,1.77,0.25,2.65,0.25c0.9,0,1.4,0.63,1.4,1.14c0,0.89-0.76,1.15-2.15,1.15h-10.65
			c-6.22,0-9.26-0.64-12.16-2.16c-4.83-2.41-9.02-7.48-15.22-15.86c-4.45-5.83-9.14-13.05-10.54-14.7
			c-0.62-0.64-1.27-0.76-2.03-0.76l-10.02-0.26c-0.51,0-0.89,0.26-0.89,0.89v1.52c0,10.02,0.14,18.38,0.65,22.95
			c0.37,3.17,0.88,5.21,4.3,5.7c1.65,0.26,4.06,0.39,5.45,0.39c0.89,0,1.39,0.63,1.39,1.14c0,0.76-0.89,1.15-2.29,1.15
			c-6.46,0-15.72-0.39-17.36-0.39c-2.16,0-9.25,0.39-13.69,0.39c-1.4,0-2.16-0.39-2.16-1.15c0-0.51,0.39-1.14,1.78-1.14
			c1.65,0,2.92-0.13,3.94-0.39c2.28-0.49,2.91-2.53,3.29-5.7c0.51-4.57,0.51-13.05,0.51-22.95V472.11z M1702.92,480.48
			c0,1.14,0.26,1.52,1.02,1.9c2.4,0.75,5.7,1.02,8.48,1.02c4.45,0,5.97-0.39,7.88-1.79c3.41-2.41,7.22-7.1,7.22-15.97
			c0-15.22-10.4-19.15-16.99-19.15c-2.8,0-5.45,0.13-6.59,0.38c-0.76,0.26-1.02,0.63-1.02,1.52V480.48z"/>
		<path class="st0" d="M1776.76,472.11c0-16.36,0-19.41-0.12-22.82c-0.25-3.69-1.28-4.82-4.83-5.84c-0.88-0.25-2.78-0.38-4.43-0.38
			c-1.14,0-1.9-0.38-1.9-1.15c0-0.75,0.89-1.01,2.54-1.01c5.83,0,12.93,0.26,16.1,0.26c4.56,0,13.44-0.26,18.51-0.26
			c13.95,0,19.02,4.57,20.8,6.09c2.42,2.29,5.58,7.11,5.58,12.94c0,15.22-12.17,26.12-28.02,26.12c-0.51,0-2.79,0-3.3-0.12
			c-0.64,0-1.39-0.39-1.39-1.14c0-0.9,1.27-1.39,3.68-1.39c6.21,0,14.96-6.47,14.96-17.52c0-3.55-0.38-10.65-6.59-15.97
			c-4.06-3.54-8.63-4.06-11.16-4.06c-1.65,0-3.8,0.12-4.82,0.52c-0.63,0.24-0.89,0.88-0.89,2.02v42.74c0,9.89,0,18.38,0.5,23.07
			c0.38,3.04,1.02,5.08,4.32,5.57c1.65,0.26,4.06,0.39,5.71,0.39c1.26,0,1.77,0.63,1.77,1.14c0,0.76-0.88,1.15-2.02,1.15
			c-7.49,0-15.34-0.39-18.27-0.39c-2.54,0-9.64,0.39-14.08,0.39c-1.39,0-2.16-0.39-2.16-1.15c0-0.51,0.39-1.14,1.79-1.14
			c1.64,0,2.92-0.13,3.93-0.39c2.29-0.49,2.92-2.53,3.3-5.7c0.5-4.57,0.5-13.05,0.5-22.95V472.11z"/>
	</g>
	<g>
		<path class="st0" d="M703.97,75.09l2.54-2.57c16.17,7.66,27.25,13.18,33.23,16.56c-0.85,1.72-4.28,7.67-10.2,17.91l71.53-0.09
			l-0.02-12.78l26.85-0.03l0.04,38.33c-7.68-10.22-16.63-7.21-26.85,8.97v-21.72l-153.3,0.19l0.02,16.59L621,136.48l-0.05-39.6
			l26.83-0.02l0.01,10.23l70.25-0.1c-1.71-1.7-3.42-5.09-5.11-10.22C709.51,89.13,706.53,81.89,703.97,75.09z M709.15,140.23
			l0.01,12.78l-28.11,0.02l0.04,20.44l26.8-0.05l0.04,12.78l-26.83,0.05l0.04,16.96c11.07-2.58,20.86-6.84,29.37-12.82l1.29,3.83
			c-21.28,20.46-50.22,33.72-86.81,39.7c8.48-10.23,7.19-20.01-3.87-29.38c8.5,2.55,20.44,2.96,35.77,1.26l-0.06-19.53l-25.56,0.02
			l-0.01-12.78l25.55,0l-0.02-20.45l-29.37,0.02l-0.04-12.78L709.15,140.23z M683.78,342.08l38.34-0.03
			c-4.27,10.22-32.4,40.75-81.71,47.31l-17.88,0.03C656.57,373.19,677,357.41,683.78,342.08z M727.24,330.55l-51.11,0.04v8.94H650.6
			l-0.11-104.74h25.53l0,5.09l100.94-0.12l-0.02-6.39h25.55l0.12,106.02h-25.55l-0.01-8.92l-43.45,0.03
			c0.85,0.87,2.04,1.93,3.83,2.58c41.59,15.12,69.03,22.05,76.68,25.45c-0.86,11.08-2.98,21.74-6.36,31.95
			C777.91,373.49,751.08,353.52,727.24,330.55z M676.05,251.4v14.05l81.76-0.1l0.02,12.77l-81.74,0.11v14.05l81.75-0.1l0.02,12.76
			l-81.77,0.09l0.02,14.07l100.93-0.13l-0.08-67.69L676.05,251.4z M813.87,141.4l0.02,12.76l-35.76,0.04l0.03,21.7l44.69-0.02
			l0.02,12.76l-44.71,0.04l0.02,23.01h15.15l0-17.87l21.88-0.06l0.04,37.04l-21.9,0.05l-0.01-5.11l-54.56,0.01l0,5.12l-21.9,0.02
			l-0.03-37.05l21.9-0.02l0.03,17.89l15.11-0.02l0-22.98l-39.59,0.05l0-12.79l39.59-0.05l-0.03-21.71l-17.88,0.01
			c-5.09,5.98-10.21,11.1-15.3,15.35h-8.95c8.47-10.22,14.03-24.69,16.57-43.43l25.55-0.03c-4.29,9.38-6.39,14.51-6.39,15.34
			L813.87,141.4z"/>
		<path class="st0" d="M954.65,385.24l-0.17-162.23l25.56-0.01l0.01,10.19l35.75-0.04l0-10.22h25.56l0.14,162.22l-25.53,0.01
			l-0.03-17.9l-35.75,0.06v17.89L954.65,385.24z M1005.55,189.74l0.01,17.89L980,207.65L979.87,74.8l25.56-0.03l0.03,12.78
			l94.5-0.09V74.67l25.55-0.02l0.11,130.32h-25.54l-0.01-15.34L1005.55,189.74z M980.17,354.56l35.76-0.08l-0.11-108.55l-35.76,0.06
			l0.04,43.42l28.12-0.02v12.78l-28.09,0.02L980.17,354.56z M1005.53,179.53l94.51-0.12l-0.06-79.19l-94.52,0.11l0.02,33.2
			l81.76-0.1v12.78l-81.76,0.1L1005.53,179.53z M1123.22,367.17l-38.29,0.03l0.01,17.9l-25.55,0.03l-0.15-162.25l25.55-0.01
			l0.03,10.2l38.29-0.04l0-10.19l25.56-0.02l0.16,164.76l-25.54,0.01L1123.22,367.17z M1084.86,302.08l0.07,52.36l38.29-0.05
			l-0.12-108.56l-38.29,0.03l0.04,43.43l28.11-0.02v12.79L1084.86,302.08z"/>
		<path class="st0" d="M1343.96,102.53l1.3-0.03c17.9,18.74,30.67,32.78,38.36,42.15c-3.41,16.19-7.2,28.09-11.48,35.76
			c-5.99-10.2-10.2-20.43-12.78-30.65c-23.01,16.22-52.79,29.03-89.39,38.41c3.35-13.61,2.53-23.82-2.58-30.64l15.3-0.02
			c16.19-21.29,23.82-49.4,22.9-84.32l30.66-0.04c-2.51,24.7-17.82,52.86-45.89,84.37c22.12-0.89,44.24-5.59,66.42-14.12
			C1349.95,127.2,1345.69,113.6,1343.96,102.53z M1311.03,382.29l-24.28,0.02l-0.2-191.6l24.29-0.03l0.01,10.23l40.87-0.04l0-7.67
			l24.27-0.03l0.18,163.51c0.01,13.61-11.49,23.01-34.46,28.14c-1.71-5.12-21.71-1.27-21.71-1.27l-1.29-3.82
			c16.14-6,25.54-9.84,28.08-11.52c3.41-2.54,5.11-6.39,5.11-11.51l-0.17-143.05l-40.87,0.04l0.03,31.94l33.21-0.05l0.03,12.77
			l-33.22,0.03l0.04,28.1l33.2-0.04l0.02,12.78l-33.22,0.03L1311.03,382.29z M1402.98,360.49l-0.14-136.67l25.56-0.03l0.06,67.7
			l45.91-51.14l10.25,10.2l-56.14,60.1l0.04,37.04c-0.86,7.67,2.99,11.51,11.49,11.51l14.03-0.01c9.37-0.01,14.48-4.7,15.34-14.07
			l8.88-46.01l6.39-0.01l2.61,47.28l0.01,12.78c-0.84,16.16-8.49,24.69-22.97,25.57l-33.21,0.04
			C1410.67,384.78,1401.29,376.69,1402.98,360.49z M1404.07,190.6l-0.12-117.52l24.29-0.03l0.09,68.97l43.35-51.13l10.25,7.66
			l-53.58,60.08l-0.01,16.62c-1.68,13.65,3.84,19.59,16.65,17.88l6.41-0.01c11.02,1.69,16.99-2.57,17.84-12.79l6.34-35.78l5.12-0.01
			l-2.52,38.34l7.66-0.02l0.03,10.21c-0.86,15.33-10.63,23.01-29.35,23.02l-25.56,0.06C1412.19,217.02,1403.24,208.49,1404.07,190.6
			z"/>
		<path class="st0" d="M1595.65,148.25h1.27c11.93,13.64,22.61,25.96,31.98,37.01c0.85,6.83-1.27,17.06-6.35,30.67l-1.26-0.01
			C1607.61,185.28,1599.03,162.77,1595.65,148.25z M1618.79,296.4l40.7-175.06l2.57,1.29l-33.02,187.81
			c12.78,20.44,19.61,31.49,20.48,33.2c-2.54,11.07-5.56,21.71-8.92,31.96l-1.27-0.02c-15.35-28.08-29.04-62.54-41.01-103.41
			l1.29-1.29c2.55,5.09,7.25,11.91,14.07,20.44C1616.25,293.84,1617.94,295.57,1618.79,296.4z M1640.37,136.7l-1.27,0.01
			c-9.44-21.27-16.26-42.11-20.55-62.55l1.29-1.3c11.09,12.76,21.74,25.53,31.97,38.29C1649.28,120.53,1645.45,129.04,1640.37,136.7
			z M1668.64,318.07l-0.24-245.27l24.27-0.02v5.11l120.08-0.13l0.01,12.79l-120.09,0.13l0.23,204.38
			c0.01,20.43-9.37,46.43-28.03,77.95c-2.57,3.38-4.28,6.81-5.1,10.22h-7.68C1663.17,361.91,1668.68,340.24,1668.64,318.07z
			 M1700.64,365.31l-7.69,0.01c15.34-23.03,22.11-59.24,20.34-108.61l22.99-0.03C1738.01,294.15,1726.15,330.37,1700.64,365.31z
			 M1706.75,123.86h24.26l0.01,10.19l12.78-0.02c0.85-3.37,1.3-7.19,1.3-11.48c0.83-4.25,1.26-11.49,1.24-21.71l25.55-0.04
			c-0.82,11.94-6.81,23.01-17.83,33.24l28.07-0.03l-0.01-10.21l24.27-0.03l0.13,118.8l-24.27,0.04l0.01-11.52l-51.1,0.06l0.01,12.78
			l-24.27,0.02L1706.75,123.86z M1749.16,349.92l-0.11-103.46l22.97,0l0.12,106.02c0.85,15.31-11.48,25.52-37.01,30.69
			c-0.86-3.41-24.29,0.03-24.29,0.03l-2.53-3.85c17.88-6.83,28.92-11.97,33.17-15.35C1746.61,360.55,1749.15,355.87,1749.16,349.92z
			 M1731.08,187.71l0.05,30.67l51.07-0.05l-0.06-71.53l-51.09,0.04l0.02,28.12l40.89-0.06v12.78L1731.08,187.71z M1798.97,347.29
			c-6.84-23.8-12.02-54.89-15.43-93.21c-0.85-1.69-0.85-2.55,0-2.55c0.82,0.86,2.09,2.11,3.8,3.82
			c5.99,12.76,14.14,30.25,24.34,52.36c3.42,7.65,5.96,12.76,7.69,15.32C1814.28,332.42,1807.45,340.5,1798.97,347.29z"/>
	</g>
</g>
</svg>
