<svg id="グループ_590" data-name="グループ 590" xmlns="http://www.w3.org/2000/svg" width="66.925" height="80.104" viewBox="0 0 66.925 80.104">
  <path id="パス_2796" data-name="パス 2796" d="M314.007,323.156a5.832,5.832,0,1,0,5.83-5.83A5.83,5.83,0,0,0,314.007,323.156Z" transform="translate(-276.346 -281.122)" fill="#fff"/>
  <path id="パス_2797" data-name="パス 2797" d="M288.642,323.156a5.83,5.83,0,1,0,5.831-5.83A5.829,5.829,0,0,0,288.642,323.156Z" transform="translate(-267.809 -281.122)" fill="#fff"/>
  <path id="パス_2798" data-name="パス 2798" d="M317.349,286.92a5.832,5.832,0,1,0,5.832-5.832A5.831,5.831,0,0,0,317.349,286.92Z" transform="translate(-277.471 -268.925)" fill="#fff"/>
  <path id="パス_2799" data-name="パス 2799" d="M331.587,343.848a5.83,5.83,0,1,0,5.829-5.829A5.83,5.83,0,0,0,331.587,343.848Z" transform="translate(-282.263 -288.086)" fill="#fff"/>
  <path id="パス_2800" data-name="パス 2800" d="M336.907,300.991a6.926,6.926,0,1,0,13.852,0,9.626,9.626,0,0,0-3.071-6.159c-2.545-2.547-3-5.919-3-10.56s1.426-7.939,3.671-9.661a7.246,7.246,0,0,0,2.4-4.927,6.926,6.926,0,1,0-13.852,0,7.877,7.877,0,0,0,2.918,5.4c2.845,2.374,2.845,8.029,2.845,10.255s-.3,7.323-2.621,9.643S336.907,298.9,336.907,300.991Z" transform="translate(-284.053 -262.755)" fill="#fff"/>
  <path id="パス_2801" data-name="パス 2801" d="M293.595,303.837a6.927,6.927,0,0,0-8.122-11.224,9.639,9.639,0,0,0-3.19,6.1c-.574,3.555-3.039,5.9-6.8,8.617s-7.266,3.5-9.979,2.691a7.257,7.257,0,0,0-5.4.945,6.928,6.928,0,0,0,8.122,11.225,7.884,7.884,0,0,0,2.665-5.532c.255-3.7,4.834-7.01,6.638-8.315s6.109-4.048,9.351-3.531S291.9,305.063,293.595,303.837Z" transform="translate(-257.24 -272.361)" fill="#fff"/>
  <path id="パス_2802" data-name="パス 2802" d="M306.353,340.453a6.928,6.928,0,0,0-6.763,12.093,9.64,9.64,0,0,0,6.876.326c3.466-.979,6.628.273,10.679,2.542s6.234,5.115,6.64,7.919a7.255,7.255,0,0,0,3.129,4.5,6.927,6.927,0,0,0,6.766-12.09,7.892,7.892,0,0,0-6.139-.09c-3.461,1.324-8.4-1.434-10.34-2.522s-6.244-3.834-7.137-7S308.179,341.476,306.353,340.453Z" transform="translate(-270.3 -288.609)" fill="#fff"/>
</svg>
